<svg width="575" height="182" viewBox="0 0 575 182" fill="none" xmlns="http://www.w3.org/2000/svg">
<path d="M309 129.852C309 130.518 309 131.185 309 131.852C307.583 131.835 306.167 131.818 304.75 131.802C279.25 131.502 253.75 131.202 228.25 130.902C226.833 130.885 225.417 130.868 224 130.852C225.417 130.835 226.833 130.818 228.25 130.802C253.75 130.502 279.25 130.202 304.75 129.902C306.167 129.885 307.583 129.868 309 129.852Z" fill="#D6AD3F"/>
<path d="M471 130.352C471 131.018 471 131.685 471 132.352C472.417 132.335 473.833 132.318 475.25 132.302C500.75 132.002 526.25 131.702 551.75 131.402C553.167 131.385 554.583 131.368 556 131.352C554.583 131.335 553.167 131.318 551.75 131.302C526.25 131.002 500.75 130.702 475.25 130.402C473.833 130.385 472.417 130.368 471 130.352Z" fill="#D6AD3F"/>
<path d="M328.286 123.152H331.766C331.766 123.152 331.766 123.205 331.766 123.312C331.766 124.045 331.472 124.438 330.886 124.492L330.306 124.532V136.592C329.906 136.778 329.392 136.872 328.766 136.872L321.986 126.732V135.432L323.426 135.552C323.506 136.418 323.206 136.852 322.526 136.852H319.026V136.692C319.026 135.958 319.319 135.565 319.906 135.512L320.486 135.472V124.572L319.046 124.452C319.006 124.372 319.012 124.192 319.066 123.912C319.186 123.405 319.479 123.152 319.946 123.152H322.566L328.806 132.452V124.572L327.386 124.452C327.306 123.585 327.606 123.152 328.286 123.152ZM349.313 136.852H344.633V136.692C344.633 135.958 344.926 135.565 345.513 135.512L346.093 135.472H346.113L345.313 132.572H341.713L340.873 135.432L342.493 135.552C342.533 135.632 342.526 135.812 342.473 136.092C342.353 136.598 342.059 136.852 341.593 136.852H337.573V136.692C337.573 135.958 337.866 135.565 338.453 135.512L339.193 135.472L343.033 123.152C343.606 123.098 344.279 123.098 345.053 123.152L348.813 135.432L350.213 135.552C350.253 135.632 350.246 135.812 350.193 136.092C350.073 136.598 349.779 136.852 349.313 136.852ZM342.093 131.232H344.953L343.573 126.172L342.093 131.232ZM364.836 123.152H368.616C368.616 123.152 368.616 123.205 368.616 123.312C368.616 124.045 368.322 124.438 367.736 124.492L367.256 124.532L363.036 136.852H361.016L357.016 124.572L355.736 124.452C355.696 124.372 355.702 124.192 355.756 123.912C355.876 123.405 356.169 123.152 356.636 123.152H361.236C361.209 123.672 361.149 123.992 361.056 124.112C360.882 124.338 360.649 124.465 360.356 124.492L359.756 124.532L362.516 133.792L365.516 124.572L363.936 124.452C363.896 124.372 363.902 124.192 363.956 123.912C364.076 123.405 364.369 123.152 364.836 123.152ZM380.725 124.452C378.339 124.452 377.145 126.272 377.145 129.912C377.145 131.738 377.439 133.132 378.025 134.092C378.625 135.052 379.499 135.538 380.645 135.552C381.859 135.538 382.772 135.072 383.385 134.152C384.012 133.218 384.325 131.845 384.325 130.032C384.325 128.218 384.019 126.838 383.405 125.892C382.805 124.932 381.912 124.452 380.725 124.452ZM374.545 130.092C374.545 127.838 375.119 126.072 376.265 124.792C377.412 123.498 378.959 122.852 380.905 122.852C382.852 122.852 384.339 123.472 385.365 124.712C386.405 125.938 386.925 127.678 386.925 129.932C386.925 132.172 386.345 133.938 385.185 135.232C384.039 136.512 382.492 137.152 380.545 137.152C378.599 137.152 377.112 136.538 376.085 135.312C375.059 134.072 374.545 132.332 374.545 130.092ZM394.694 123.152H399.374C404.041 123.152 406.374 125.412 406.374 129.932C406.374 132.172 405.768 133.885 404.554 135.072C403.341 136.258 401.648 136.852 399.474 136.852H393.654C393.614 136.532 393.648 136.238 393.754 135.972C393.874 135.705 394.074 135.558 394.354 135.532L395.074 135.452V124.572H395.054L393.654 124.452C393.641 123.985 393.708 123.652 393.854 123.452C394.001 123.252 394.281 123.152 394.694 123.152ZM398.874 135.472C400.594 135.578 401.841 135.198 402.614 134.332C403.388 133.465 403.774 132.032 403.774 130.032C403.774 128.018 403.374 126.585 402.574 125.732C401.788 124.865 400.494 124.465 398.694 124.532L397.574 124.572V135.392L398.874 135.472ZM424.273 136.852H419.593V136.692C419.593 135.958 419.886 135.565 420.473 135.512L421.053 135.472H421.073L420.273 132.572H416.673L415.833 135.432L417.453 135.552C417.493 135.632 417.486 135.812 417.433 136.092C417.313 136.598 417.019 136.852 416.553 136.852H412.533V136.692C412.533 135.958 412.826 135.565 413.413 135.512L414.153 135.472L417.993 123.152C418.566 123.098 419.239 123.098 420.013 123.152L423.773 135.432L425.173 135.552C425.213 135.632 425.206 135.812 425.153 136.092C425.033 136.598 424.739 136.852 424.273 136.852ZM417.053 131.232H419.913L418.533 126.172L417.053 131.232ZM439.556 123.152H443.356C443.356 123.152 443.356 123.205 443.356 123.312C443.356 124.045 443.062 124.438 442.476 124.492L441.976 124.532L438.276 131.092V135.432H438.296L439.716 135.552C439.796 136.418 439.496 136.852 438.816 136.852H434.316V136.692C434.316 135.958 434.609 135.565 435.196 135.512L435.776 135.472V131.172L431.976 124.572L430.696 124.452C430.656 124.372 430.662 124.192 430.716 123.912C430.836 123.405 431.129 123.152 431.596 123.152H436.436C436.409 123.672 436.349 123.992 436.256 124.112C436.082 124.338 435.849 124.465 435.556 124.492L434.916 124.532H434.876L437.576 129.392L440.216 124.572L438.656 124.452C438.616 124.372 438.622 124.192 438.676 123.912C438.796 123.405 439.089 123.152 439.556 123.152ZM460.571 136.852H455.891V136.692C455.891 135.958 456.184 135.565 456.771 135.512L457.351 135.472H457.371L456.571 132.572H452.971L452.131 135.432L453.751 135.552C453.791 135.632 453.784 135.812 453.731 136.092C453.611 136.598 453.318 136.852 452.851 136.852H448.831V136.692C448.831 135.958 449.124 135.565 449.711 135.512L450.451 135.472L454.291 123.152C454.864 123.098 455.538 123.098 456.311 123.152L460.071 135.432L461.471 135.552C461.511 135.632 461.504 135.812 461.451 136.092C461.331 136.598 461.038 136.852 460.571 136.852ZM453.351 131.232H456.211L454.831 126.172L453.351 131.232Z" fill="#D6AD3F"/>
<path d="M227.375 102.582C227.375 102.582 227.107 101.9 226.572 100.538C226.085 99.1262 225.428 97.3012 224.601 95.0626C223.822 92.7752 222.922 90.2932 221.9 87.6166C220.927 84.8912 219.929 82.1902 218.907 79.5136C217.934 76.7882 217.033 74.3062 216.206 72.0676C215.427 69.8289 214.77 68.0282 214.235 66.6656C213.748 65.3029 213.505 64.6216 213.505 64.6216C212.726 62.6262 211.948 61.1906 211.169 60.3146C210.39 59.4386 209.222 58.8546 207.665 58.5626C206.984 58.4166 206.497 58.2949 206.205 58.1976C205.962 58.1002 205.84 57.6622 205.84 56.8836C205.84 56.0562 206.132 55.6182 206.716 55.5696C207.3 55.4722 207.981 55.4236 208.76 55.4236C212.021 55.4722 214.551 56.0806 216.352 57.2486C218.153 58.3679 219.588 60.3146 220.659 63.0886L231.244 91.5586H231.463L241.537 62.2856C242.072 60.7282 242.097 59.7549 241.61 59.3656C241.123 58.9276 240.028 58.7086 238.325 58.7086C237.838 58.7086 237.425 58.6599 237.084 58.5626C236.743 58.4652 236.549 58.0029 236.5 57.1756C236.5 56.7862 236.597 56.4212 236.792 56.0806C236.987 55.7399 237.303 55.5696 237.741 55.5696C239.298 55.6182 240.637 55.6669 241.756 55.7156C242.924 55.7642 244.238 55.7886 245.698 55.7886C246.671 55.7886 247.474 55.7886 248.107 55.7886C248.74 55.7399 249.372 55.7156 250.005 55.7156C250.686 55.6669 251.538 55.6182 252.56 55.5696C253.047 55.5696 253.387 55.7399 253.582 56.0806C253.777 56.4212 253.874 56.7862 253.874 57.1756C253.825 58.0029 253.631 58.4652 253.29 58.5626C252.998 58.6599 252.584 58.7086 252.049 58.7086C250.2 58.7086 248.74 59.0492 247.669 59.7306C246.598 60.4119 245.674 61.7259 244.895 63.6726C244.895 63.6239 244.627 64.3052 244.092 65.7166C243.605 67.0792 242.948 68.9286 242.121 71.2646C241.294 73.5519 240.369 76.0826 239.347 78.8566C238.374 81.6306 237.376 84.4046 236.354 87.1786C235.332 89.9526 234.407 92.5076 233.58 94.8436C232.753 97.1796 232.071 99.0532 231.536 100.465C231.049 101.876 230.806 102.582 230.806 102.582H227.375ZM273.153 102.071C272.715 102.071 272.399 101.9 272.204 101.56C272.009 101.219 271.912 100.854 271.912 100.465C271.961 99.6372 272.155 99.1749 272.496 99.0776C272.837 98.9802 273.25 98.9316 273.737 98.9316C275.294 98.9316 276.389 98.6639 277.022 98.1286C277.655 97.5446 278.044 96.8389 278.19 96.0116C278.385 95.1356 278.482 94.2352 278.482 93.3106V64.3296C278.482 63.4049 278.385 62.5289 278.19 61.7016C278.044 60.8256 277.655 60.1199 277.022 59.5846C276.389 59.0006 275.294 58.7086 273.737 58.7086C273.25 58.7086 272.837 58.6599 272.496 58.5626C272.155 58.4652 271.961 58.0029 271.912 57.1756C271.912 56.7862 272.009 56.4212 272.204 56.0806C272.399 55.7399 272.715 55.5696 273.153 55.5696C274.759 55.6182 276.243 55.6669 277.606 55.7156C278.969 55.7642 280.38 55.7886 281.84 55.7886H304.762C305.297 55.7886 305.735 55.9102 306.076 56.1536C306.465 56.3969 306.66 56.8592 306.66 57.5406L306.879 67.7606C306.879 68.2472 306.636 68.6122 306.149 68.8556C305.711 69.0989 305.297 69.2206 304.908 69.2206C304.373 69.2206 303.886 69.1232 303.448 68.9286C303.01 68.6852 302.742 68.3446 302.645 67.9066C302.304 65.7166 301.891 63.9646 301.404 62.6506C300.966 61.2879 300.285 60.3146 299.36 59.7306C298.484 59.0979 297.194 58.7572 295.491 58.7086H285.709V77.2506H298.922C299.311 77.2992 299.579 77.4939 299.725 77.8346C299.92 78.1752 300.017 78.5402 300.017 78.9296C300.017 79.2702 299.92 79.6109 299.725 79.9516C299.579 80.2436 299.311 80.3896 298.922 80.3896H285.709V94.1866C285.758 94.8192 285.855 95.5249 286.001 96.3036C286.147 97.0336 286.561 97.6662 287.242 98.2016C287.972 98.7369 289.164 98.9802 290.819 98.9316H297.535C299.238 98.8829 300.528 98.6152 301.404 98.1286C302.329 97.5932 303.059 96.7172 303.594 95.5006C304.129 94.2839 304.713 92.6049 305.346 90.4636C305.541 89.9769 305.857 89.6606 306.295 89.5146C306.782 89.3686 307.293 89.3442 307.828 89.4416C308.217 89.4902 308.607 89.6606 308.996 89.9526C309.434 90.2446 309.629 90.6339 309.58 91.1206L308.12 100.319C307.974 101 307.731 101.438 307.39 101.633C307.098 101.779 306.636 101.852 306.003 101.852H281.913C280.453 101.852 279.017 101.852 277.606 101.852C276.243 101.9 274.759 101.973 273.153 102.071ZM314.964 102.071C314.623 102.071 314.331 101.925 314.088 101.633C313.893 101.292 313.796 100.951 313.796 100.611C313.844 99.8806 314.015 99.4912 314.307 99.4426C314.647 99.3452 315.037 99.2966 315.475 99.2966C316.837 99.2966 317.762 99.0776 318.249 98.6396C318.784 98.1529 319.076 97.5202 319.125 96.7416C319.222 95.9629 319.271 95.1599 319.271 94.3326V58.7086C319.271 57.8326 319.222 57.0296 319.125 56.2996C319.076 55.5209 318.808 54.9126 318.322 54.4746C317.835 53.9879 316.91 53.7446 315.548 53.7446C315.11 53.7446 314.696 53.6959 314.307 53.5986C313.966 53.4526 313.796 53.0146 313.796 52.2846C313.796 51.5546 314.185 51.1166 314.964 50.9706C317.202 50.6299 318.906 50.2892 320.074 49.9486C321.29 49.6079 322.215 49.3159 322.848 49.0726C323.48 48.8292 324.04 48.6832 324.527 48.6346C324.916 48.5859 325.232 48.6589 325.476 48.8536C325.768 49.0482 325.914 49.4376 325.914 50.0216V94.3326C325.914 95.1599 325.938 95.9629 325.987 96.7416C326.084 97.5202 326.376 98.1529 326.863 98.6396C327.398 99.0776 328.347 99.2966 329.71 99.2966C330.148 99.2966 330.513 99.3452 330.805 99.4426C331.145 99.4912 331.34 99.8806 331.389 100.611C331.389 100.951 331.291 101.292 331.097 101.633C330.902 101.925 330.61 102.071 330.221 102.071C328.809 101.973 327.495 101.9 326.279 101.852C325.111 101.852 323.87 101.852 322.556 101.852C321.242 101.852 320.001 101.852 318.833 101.852C317.665 101.9 316.375 101.973 314.964 102.071ZM352.58 102.728C348.833 102.728 345.67 101.925 343.09 100.319C340.56 98.7126 338.662 96.5712 337.396 93.8946C336.131 91.2179 335.498 88.2979 335.498 85.1346C335.498 82.9932 335.863 80.9249 336.593 78.9296C337.372 76.8856 338.467 75.0362 339.878 73.3816C341.29 71.6782 342.993 70.3399 344.988 69.3666C346.984 68.3932 349.247 67.9066 351.777 67.9066C356.255 67.9066 359.613 69.0746 361.851 71.4106C364.139 73.6979 365.453 76.6179 365.793 80.1706C365.793 81.8739 365.307 82.9932 364.333 83.5286C363.409 84.0639 362.192 84.3316 360.683 84.3316H342.944C342.944 87.1542 343.334 89.6849 344.112 91.9236C344.891 94.1136 346.108 95.8656 347.762 97.1796C349.466 98.4449 351.704 99.0776 354.478 99.0776C356.522 99.0776 358.274 98.6396 359.734 97.7636C361.194 96.8876 362.606 95.3546 363.968 93.1646C364.358 92.6779 364.893 92.6536 365.574 93.0916C365.964 93.2862 366.207 93.6026 366.304 94.0406C366.402 94.4299 366.353 94.7706 366.158 95.0626C364.65 97.4472 362.752 99.3209 360.464 100.684C358.177 102.046 355.549 102.728 352.58 102.728ZM342.944 81.5576H354.843C356.011 81.5576 356.936 81.3386 357.617 80.9006C358.347 80.4139 358.737 79.6109 358.785 78.4916C358.785 76.3989 358.201 74.5496 357.033 72.9436C355.914 71.2889 354.162 70.4616 351.777 70.4616C349.344 70.4616 347.3 71.4349 345.645 73.3816C344.039 75.3282 343.139 78.0536 342.944 81.5576ZM385.617 102.582C384.401 99.9049 383.184 96.9849 381.967 93.8216C380.751 90.6582 379.558 87.5679 378.39 84.5506C377.222 81.5332 376.103 78.9052 375.032 76.6666C374.254 74.8659 373.499 73.6006 372.769 72.8706C372.039 72.0919 370.944 71.6052 369.484 71.4106C368.852 71.3132 368.414 71.2159 368.17 71.1186C367.976 71.0212 367.854 70.6562 367.805 70.0236C367.757 69.1962 367.976 68.7582 368.462 68.7096C368.998 68.6122 369.63 68.5392 370.36 68.4906C373.378 68.3446 375.738 68.7826 377.441 69.8046C379.145 70.8266 380.532 72.5542 381.602 74.9876C382.284 76.4962 383.038 78.3699 383.865 80.6086C384.741 82.8472 385.642 85.1102 386.566 87.3976C387.491 89.6849 388.391 91.7532 389.267 93.6026H389.486L396.713 74.4766C397.2 73.0652 397.224 72.1892 396.786 71.8486C396.348 71.5079 395.399 71.3376 393.939 71.3376C393.501 71.3376 393.136 71.3132 392.844 71.2646C392.552 71.1672 392.382 70.7536 392.333 70.0236C392.333 69.7316 392.406 69.4152 392.552 69.0746C392.747 68.7339 393.015 68.5636 393.355 68.5636C394.767 68.6122 395.983 68.6609 397.005 68.7096C398.027 68.7582 399.171 68.7826 400.436 68.7826C401.312 68.7826 402.018 68.7826 402.553 68.7826C403.089 68.7339 403.648 68.7096 404.232 68.7096C404.816 68.6609 405.571 68.6122 406.495 68.5636C406.885 68.5636 407.152 68.7339 407.298 69.0746C407.493 69.4152 407.59 69.7316 407.59 70.0236C407.542 70.7536 407.347 71.1672 407.006 71.2646C406.714 71.3132 406.374 71.3376 405.984 71.3376C404.378 71.3376 403.089 71.6296 402.115 72.2136C401.191 72.7976 400.388 73.9412 399.706 75.6446C399.706 75.6446 399.439 76.3016 398.903 77.6156C398.417 78.8809 397.76 80.5356 396.932 82.5796C396.105 84.6236 395.229 86.7892 394.304 89.0766C393.38 91.3639 392.479 93.5296 391.603 95.5736C390.776 97.6176 390.095 99.2966 389.559 100.611C389.024 101.925 388.732 102.582 388.683 102.582H385.617ZM417.912 102.728C414.943 102.728 412.559 101.876 410.758 100.173C409.006 98.4692 408.13 96.4252 408.13 94.0406C408.13 91.5586 408.763 89.6119 410.028 88.2006C411.342 86.7892 413.045 85.7429 415.138 85.0616C417.279 84.3802 419.591 83.9179 422.073 83.6746C424.604 83.4312 427.061 83.2366 429.446 83.0906V77.3236C429.446 75.0362 428.862 73.2599 427.694 71.9946C426.575 70.6806 424.652 70.0236 421.927 70.0236C420.564 70.0236 419.275 70.4616 418.058 71.3376C416.89 72.2136 416.306 73.4789 416.306 75.1336C416.306 75.9122 416.501 76.5692 416.89 77.1046C417.279 77.6399 417.669 78.0536 418.058 78.3456C418.447 78.6376 418.642 78.8322 418.642 78.9296C418.642 79.1242 418.35 79.4892 417.766 80.0246C417.231 80.5112 416.476 80.7546 415.503 80.7546C413.994 80.7546 412.826 80.1949 411.999 79.0756C411.172 77.9562 410.758 76.7152 410.758 75.3526C410.758 73.5032 411.318 72.0432 412.437 70.9726C413.605 69.9019 415.089 69.1232 416.89 68.6366C418.691 68.1499 420.516 67.9066 422.365 67.9066C424.555 67.9066 426.672 68.1742 428.716 68.7096C430.809 69.2449 432.512 70.2669 433.826 71.7756C435.189 73.2842 435.87 75.5472 435.87 78.5646V95.5736C435.919 96.0602 436.04 96.6442 436.235 97.3256C436.43 98.0069 436.795 98.6152 437.33 99.1506C437.914 99.6372 438.693 99.8806 439.666 99.8806C440.007 99.8806 440.274 99.9536 440.469 100.1C440.664 100.197 440.761 100.513 440.761 101.049C440.761 101.487 440.518 101.827 440.031 102.071C439.544 102.314 438.985 102.484 438.352 102.582C437.719 102.679 437.184 102.728 436.746 102.728C434.945 102.728 433.339 102.217 431.928 101.195C430.517 100.124 429.689 98.6639 429.446 96.8146C428.375 98.7612 426.769 100.246 424.628 101.268C422.535 102.241 420.297 102.728 417.912 102.728ZM420.248 98.7856C421.903 98.7856 423.411 98.3719 424.774 97.5446C426.185 96.7172 427.305 95.5979 428.132 94.1866C429.008 92.7266 429.446 91.1206 429.446 89.3686V85.2076C424.433 85.5482 420.856 86.3512 418.715 87.6166C416.574 88.8819 415.503 90.9502 415.503 93.8216C415.503 97.1309 417.085 98.7856 420.248 98.7856ZM457.488 103.093C456.028 103.093 454.641 102.728 453.327 101.998C452.013 101.268 450.918 100.148 450.042 98.6396C449.215 97.1309 448.801 95.2329 448.801 92.9456V71.4836L444.567 71.6296C444.227 71.6296 443.959 71.5079 443.764 71.2646C443.618 70.9726 443.545 70.6562 443.545 70.3156C443.545 69.3422 443.886 68.7826 444.567 68.6366C446.368 68.2959 447.731 67.7362 448.655 66.9576C449.58 66.1302 450.286 65.1569 450.772 64.0376C451.308 62.9182 451.794 61.7016 452.232 60.3876C452.378 59.9982 452.597 59.7549 452.889 59.6576C453.181 59.5116 453.498 59.4386 453.838 59.4386C454.13 59.4386 454.447 59.5116 454.787 59.6576C455.177 59.8036 455.371 60.0712 455.371 60.4606L454.86 68.7826L463.401 68.2716C463.839 68.2229 464.131 68.3446 464.277 68.6366C464.423 68.9286 464.496 69.2692 464.496 69.6586C464.496 70.1452 464.399 70.6319 464.204 71.1186C464.058 71.6052 463.864 71.8486 463.62 71.8486L455.444 71.6296V93.8216C455.444 95.2329 455.736 96.5226 456.32 97.6906C456.953 98.8586 458.072 99.4426 459.678 99.4426C460.214 99.4426 460.822 99.3939 461.503 99.2966C462.185 99.1992 462.915 98.9802 463.693 98.6396C463.888 98.5422 464.083 98.4692 464.277 98.4206C464.472 98.3232 464.667 98.2746 464.861 98.2746C465.251 98.2746 465.543 98.4449 465.737 98.7856C465.932 99.0776 466.102 99.3939 466.248 99.7346C466.394 100.173 466.273 100.513 465.883 100.757C464.375 101.73 462.988 102.363 461.722 102.655C460.457 102.947 459.046 103.093 457.488 103.093ZM489.455 102.728C485.708 102.728 482.545 101.925 479.965 100.319C477.435 98.7126 475.537 96.5712 474.271 93.8946C473.006 91.2179 472.373 88.2979 472.373 85.1346C472.373 82.9932 472.738 80.9249 473.468 78.9296C474.247 76.8856 475.342 75.0362 476.753 73.3816C478.165 71.6782 479.868 70.3399 481.863 69.3666C483.859 68.3932 486.122 67.9066 488.652 67.9066C493.13 67.9066 496.488 69.0746 498.726 71.4106C501.014 73.6979 502.328 76.6179 502.668 80.1706C502.668 81.8739 502.182 82.9932 501.208 83.5286C500.284 84.0639 499.067 84.3316 497.558 84.3316H479.819C479.819 87.1542 480.209 89.6849 480.987 91.9236C481.766 94.1136 482.983 95.8656 484.637 97.1796C486.341 98.4449 488.579 99.0776 491.353 99.0776C493.397 99.0776 495.149 98.6396 496.609 97.7636C498.069 96.8876 499.481 95.3546 500.843 93.1646C501.233 92.6779 501.768 92.6536 502.449 93.0916C502.839 93.2862 503.082 93.6026 503.179 94.0406C503.277 94.4299 503.228 94.7706 503.033 95.0626C501.525 97.4472 499.627 99.3209 497.339 100.684C495.052 102.046 492.424 102.728 489.455 102.728ZM479.819 81.5576H491.718C492.886 81.5576 493.811 81.3386 494.492 80.9006C495.222 80.4139 495.612 79.6109 495.66 78.4916C495.66 76.3989 495.076 74.5496 493.908 72.9436C492.789 71.2889 491.037 70.4616 488.652 70.4616C486.219 70.4616 484.175 71.4349 482.52 73.3816C480.914 75.3282 480.014 78.0536 479.819 81.5576ZM548.484 103.312C544.591 103.312 541.33 102.63 538.702 101.268C536.074 99.9049 534.103 98.1529 532.789 96.0116C531.475 93.8702 530.818 91.6072 530.818 89.2226V64.3296C530.818 63.4049 530.721 62.5289 530.526 61.7016C530.38 60.8256 529.991 60.1199 529.358 59.5846C528.725 59.0006 527.63 58.7086 526.073 58.7086C525.586 58.7086 525.173 58.6599 524.832 58.5626C524.491 58.4652 524.297 58.0029 524.248 57.1756C524.248 56.7862 524.345 56.4212 524.54 56.0806C524.735 55.7399 525.075 55.5696 525.562 55.5696C527.119 55.6182 528.579 55.6669 529.942 55.7156C531.305 55.7642 532.716 55.7886 534.176 55.7886C537.145 55.7886 540.186 55.7156 543.301 55.5696C543.788 55.5696 544.128 55.7399 544.323 56.0806C544.518 56.4212 544.615 56.7862 544.615 57.1756C544.566 57.9056 544.42 58.3436 544.177 58.4896C543.934 58.6356 543.593 58.7086 543.155 58.7086C541.5 58.7086 540.308 58.9762 539.578 59.5116C538.897 59.9982 538.483 60.6796 538.337 61.5556C538.191 62.3829 538.094 63.3076 538.045 64.3296V87.1056C538.045 88.3709 538.167 89.7092 538.41 91.1206C538.702 92.4832 539.237 93.7729 540.016 94.9896C540.795 96.1576 541.938 97.1309 543.447 97.9096C545.004 98.6396 547.073 99.0046 549.652 99.0046C552.961 99.0046 555.492 98.4692 557.244 97.3986C559.045 96.2792 560.286 94.8922 560.967 93.2376C561.648 91.5829 561.989 89.8796 561.989 88.1276V68.9286C561.989 65.7166 561.867 63.4049 561.624 61.9936C561.381 60.5336 560.845 59.6332 560.018 59.2926C559.239 58.9032 558.023 58.7086 556.368 58.7086C555.881 58.7086 555.468 58.6599 555.127 58.5626C554.786 58.4652 554.592 58.0029 554.543 57.1756C554.543 56.7862 554.64 56.4212 554.835 56.0806C555.03 55.7399 555.37 55.5696 555.857 55.5696C557.414 55.6182 558.801 55.6669 560.018 55.7156C561.235 55.7642 562.573 55.7886 564.033 55.7886C565.493 55.7886 566.831 55.7642 568.048 55.7156C569.265 55.6669 570.652 55.6182 572.209 55.5696C572.696 55.5696 573.036 55.7399 573.231 56.0806C573.426 56.4212 573.523 56.7862 573.523 57.1756C573.474 57.9056 573.328 58.3436 573.085 58.4896C572.842 58.6356 572.501 58.7086 572.063 58.7086C570.749 58.7086 569.678 58.7816 568.851 58.9276C568.072 59.0736 567.464 59.4629 567.026 60.0956C566.637 60.6796 566.369 61.6529 566.223 63.0156C566.126 64.3296 566.077 66.1546 566.077 68.4906V88.8576C566.077 91.4369 565.517 93.6512 564.398 95.5006C563.327 97.3499 561.892 98.8586 560.091 100.027C558.339 101.146 556.441 101.973 554.397 102.509C552.353 103.044 550.382 103.312 548.484 103.312Z" fill="#D6AD3F"/>
<path d="M154.998 24.8516C123.398 28.4516 102.498 12.3516 95.998 3.85156C75.7182 25.2793 50.1614 27.0634 38.498 25.1354C37.9688 25.048 37.4683 24.9528 36.998 24.8516V65.8516C38.598 124.652 76.998 143.018 95.998 144.852C144.398 136.852 155.498 88.8516 154.998 65.8516V24.8516Z" fill="url(#paint0_linear_4137_261)" stroke="#D9AD49" stroke-width="5"/>
<path d="M127.998 61.8516C129.665 61.8516 131.331 61.8516 132.998 61.8516C132.973 62.8074 132.948 63.7632 132.923 64.7191C132.7 73.2632 132.476 81.8074 132.253 90.3516L132.309 92.5356L130.085 92.0568C122.211 90.1673 113.093 90.4812 105.898 94.5983C105.11 95.0593 104.355 95.5661 103.631 96.1255C103.209 95.6095 102.787 95.0936 102.365 94.5776C103.126 93.9229 103.925 93.3232 104.763 92.7725C112.502 87.8544 121.979 87.0168 130.911 88.6464L128.743 90.3516C128.52 81.8074 128.297 73.2632 128.073 64.7191C128.048 63.7632 128.023 62.8074 127.998 61.8516Z" fill="#D3A439"/>
<path d="M64.498 61.8516C62.8314 61.8516 61.1647 61.8516 59.498 61.8516C59.523 62.8074 59.548 63.7632 59.573 64.7191C59.7965 73.2632 60.02 81.8074 60.2435 90.3516L60.1871 92.5356L62.4114 92.0568C70.2856 90.1673 79.4029 90.4812 86.5979 94.5983C87.3865 95.0593 88.1415 95.5661 88.8648 96.1255C89.287 95.6095 89.7091 95.0936 90.1313 94.5776C89.3705 93.9229 88.5714 93.3232 87.7333 92.7725C79.9942 87.8544 70.5171 87.0168 61.5847 88.6464L63.7526 90.3516C63.9761 81.8074 64.1996 73.2632 64.423 64.7191C64.448 63.7632 64.473 62.8074 64.498 61.8516Z" fill="#D3A439"/>
<path d="M95.998 65.3519C106.398 54.1519 118.998 56.0185 123.998 58.3519V83.8519C109.598 81.8519 101.665 89.3519 99.498 93.3519H96.248M95.998 65.3519C93.3314 60.6852 83.998 52.7519 67.998 58.3519V83.8519C74.8314 83.0185 89.398 83.7519 92.998 93.3519H96.248M95.998 65.3519L96.248 93.3519" stroke="#D9AD49" stroke-width="2"/>
<ellipse cx="96.498" cy="98.3516" rx="4.5" ry="1.5" fill="#D9A733"/>
<path d="M116.498 131.852V115.852C119.698 116.252 121.165 118.352 121.498 119.352V128.352C120.698 129.952 117.831 131.352 116.498 131.852Z" fill="#D3AA3C"/>
<path d="M91.998 117.352H78.498C83.298 117.752 85.8314 119.185 86.498 119.852H91.998C95.598 118.652 93.498 117.685 91.998 117.352Z" fill="#D3AA3C"/>
<path d="M91.998 121.852H73.998L91.998 123.852C94.398 123.052 92.998 122.185 91.998 121.852Z" fill="#D3AA3C"/>
<path d="M91.998 124.852L73.998 125.352L91.998 126.852C94.398 126.052 92.998 125.185 91.998 124.852Z" fill="#D3AA3C"/>
<path d="M91.498 129.352L73.998 129.852L91.498 131.352C94.298 130.152 92.6647 129.518 91.498 129.352Z" fill="#D3AA3C"/>
<path d="M91.998 133.852H81.998L84.998 136.352H91.998C94.398 134.352 92.998 133.852 91.998 133.852Z" fill="#D3AA3C"/>
<path d="M109.498 106.352H77.998L92.998 107.352C95.798 109.352 94.1647 112.185 92.998 113.352L74.498 113.852H109.498C108.698 112.652 109.165 108.352 109.498 106.352Z" fill="#D3AA3C"/>
<path d="M90.998 109.352H86.998C87.398 110.152 84.8314 111.018 83.498 111.352H90.998C92.998 110.552 91.8314 109.685 90.998 109.352Z" fill="#D3AA3C"/>
<path d="M114.998 115.852H94.498C97.298 122.758 95.6647 133.063 94.498 137.352H105.498L114.998 132.852V115.852Z" fill="#D3AA3C"/>
<path d="M172.254 45.3439C169.909 43.8629 166.154 39.3056 169.893 32.9247C172.516 35.6524 176.659 41.9551 172.254 45.3439Z" fill="#D6AD3F" stroke="#BEA05A" stroke-width="0.5"/>
<path d="M119.771 153.614C140.978 143.867 181.163 108.568 172.252 45.3411" stroke="#BEA05A" stroke-width="0.5"/>
<path d="M147.876 149.518C143.241 146.076 135.286 146.065 131.887 146.49C136.836 138.305 133.939 135.784 131.872 135.547C125.483 138.711 126.377 147.075 127.623 150.862C136.893 157.746 144.987 152.834 147.876 149.518Z" fill="#D6AD3F" stroke="#BEA05A" stroke-width="0.5"/>
<path d="M161.686 134.373C156.447 131.88 148.658 133.39 145.418 134.456C148.592 125.475 145.243 123.554 143.171 123.716C137.563 128.043 140.144 136.085 142.136 139.564C152.614 144.551 159.535 138.181 161.686 134.373Z" fill="#D6AD3F" stroke="#BEA05A" stroke-width="0.5"/>
<path d="M171.251 117.382C165.68 115.709 160.504 118.681 157.48 120.226C159.161 110.864 153.282 109.171 151.264 109.645C146.43 114.773 150.275 122.334 152.802 125.474C163.944 128.819 169.744 121.473 171.251 117.382Z" fill="#D6AD3F" stroke="#BEA05A" stroke-width="0.5"/>
<path d="M178.831 97.5124C173.021 97.13 168.704 101.186 166.137 103.369C165.532 93.8686 159.417 93.5355 157.571 94.449C154.102 100.53 159.644 107.037 162.848 109.531C174.468 110.296 178.345 101.837 178.831 97.5124Z" fill="#D6AD3F" stroke="#BEA05A" stroke-width="0.5"/>
<path d="M182.684 79.2318C176.968 79.7481 173.503 84.394 171.401 86.9323C169.101 77.6944 163.098 78.3058 161.468 79.4864C159.192 85.9912 165.751 91.5323 169.315 93.4897C180.748 92.4572 182.992 83.5542 182.684 79.2318Z" fill="#D6AD3F" stroke="#BEA05A" stroke-width="0.5"/>
<path d="M180.433 66.5502C176.737 66.8884 174.493 69.8924 173.132 71.5337C171.653 65.5683 167.772 65.9682 166.718 66.7321C165.24 70.9359 169.476 74.5098 171.778 75.7713C179.17 75.0949 180.628 69.3421 180.433 66.5502Z" fill="#D6AD3F" stroke="#BEA05A" stroke-width="0.5"/>
<path d="M178.123 47.2416C174.744 48.7119 173.621 52.2616 172.88 54.2432C169.503 49.0394 165.97 50.6258 165.227 51.679C165.227 56.1294 170.413 58.2056 173.006 58.6875C179.764 55.7469 179.233 49.8316 178.123 47.2416Z" fill="#D6AD3F" stroke="#BEA05A" stroke-width="0.5"/>
<path d="M19.7445 45.3518C22.0892 43.8707 25.8438 39.3134 22.105 32.9325C19.4824 35.6602 15.3387 41.9629 19.7445 45.3518Z" fill="#D6AD3F" stroke="#BEA05A" stroke-width="0.5"/>
<path d="M72.2268 153.622C51.0204 143.875 10.8352 108.575 19.7458 45.349" stroke="#BEA05A" stroke-width="0.5"/>
<path d="M44.1238 149.526C48.7588 146.084 56.7142 146.073 60.1125 146.497C55.1644 138.313 58.0611 135.792 60.1279 135.555C66.517 138.719 65.623 147.083 64.3773 150.87C55.1075 157.754 47.0126 152.842 44.1238 149.526Z" fill="#D6AD3F" stroke="#BEA05A" stroke-width="0.5"/>
<path d="M30.3136 134.377C35.5525 131.884 43.3419 133.394 46.5817 134.46C43.4077 125.479 46.7573 123.558 48.8288 123.72C54.4373 128.047 51.8561 136.089 49.8643 139.568C39.3865 144.555 32.4647 138.185 30.3136 134.377Z" fill="#D6AD3F" stroke="#BEA05A" stroke-width="0.5"/>
<path d="M20.7489 117.386C26.3199 115.713 31.4963 118.685 34.5203 120.23C32.8392 110.868 38.7182 109.175 40.7357 109.649C45.57 114.777 41.7251 122.338 39.1984 125.478C28.0563 128.823 22.2562 121.477 20.7489 117.386Z" fill="#D6AD3F" stroke="#BEA05A" stroke-width="0.5"/>
<path d="M13.1673 97.5163C18.9774 97.1339 23.294 101.19 25.8614 103.373C26.4665 93.8725 32.5806 93.5394 34.4266 94.4529C37.8956 100.534 32.3543 107.041 29.15 109.535C17.5299 110.3 13.6531 101.841 13.1673 97.5163Z" fill="#D6AD3F" stroke="#BEA05A" stroke-width="0.5"/>
<path d="M9.31365 79.2397C15.0301 79.7559 18.495 84.4018 20.5972 86.9401C22.8975 77.7022 28.9004 78.3136 30.5302 79.4942C32.8062 85.999 26.2472 91.5401 22.6831 93.4975C11.2503 92.465 9.00647 83.5621 9.31365 79.2397Z" fill="#D6AD3F" stroke="#BEA05A" stroke-width="0.5"/>
<path d="M11.5667 66.5581C15.2626 66.8963 17.5066 69.9002 18.8678 71.5416C20.3467 65.5761 24.2279 65.976 25.2825 66.74C26.7596 70.9437 22.5243 74.5176 20.2221 75.7791C12.8303 75.1027 11.3719 69.3499 11.5667 66.5581Z" fill="#D6AD3F" stroke="#BEA05A" stroke-width="0.5"/>
<path d="M13.8771 47.2455C17.256 48.7158 18.3791 52.2655 19.1203 54.2471C22.4966 49.0433 26.0302 50.6297 26.7729 51.6829C26.7734 56.1333 21.5869 58.2095 18.9935 58.6914C12.2356 55.7508 12.7667 49.8355 13.8771 47.2455Z" fill="#D6AD3F" stroke="#BEA05A" stroke-width="0.5"/>
<path d="M42.498 172.352C31.7796 164.852 19.8333 158.363 16 157.363C18.6667 155.03 24.4 149.563 26 146.363C27.6 143.163 27.3333 137.697 27 135.363L45.5 144.363L49 138.352C88.2 165.552 128.5 148.697 143.5 136.863L147 144.363L165 134.863C165.167 138.197 165.6 145.363 166 147.363C166.4 149.363 172.833 155.197 176 157.863C167 158.363 157.498 169.848 147 173.348C132.39 178.219 145.167 170.197 150 166.363C160.8 157.963 150.862 158.363 146 161.363C99 190.363 48.7249 162.976 45.5 161.363C42.5 159.863 39.5 159.03 38 159.363C35.5 159.919 36.4038 162.094 38 163.363C40.5 165.352 47.6024 170.628 49.5 172.352C55 177.348 47.5 175.852 42.498 172.352Z" fill="url(#paint1_linear_4137_261)" stroke="#BEA05A" stroke-width="0.5"/>
<path d="M147 144.363L154.5 159.863" stroke="#BEA05A" stroke-width="0.5"/>
<path d="M45.7344 143.969L36.5 160.352" stroke="#BEA05A" stroke-width="0.5"/>
<path d="M58.3373 150.461L60.6105 151.337C60.6105 151.337 60.5971 151.372 60.5703 151.441C60.3858 151.92 60.0953 152.104 59.6986 151.991L59.3097 151.871L56.276 159.749C55.9677 159.77 55.6089 159.702 55.1995 159.545L53.3213 151.215L51.1328 156.898L52.0433 157.339C51.8775 157.925 51.5726 158.133 51.1284 157.962L48.842 157.081L48.8823 156.977C49.0667 156.498 49.3573 156.315 49.7539 156.428L50.1429 156.547L52.8848 149.427L51.9743 148.986C51.9683 148.924 52.0179 148.808 52.1232 148.639C52.3291 148.338 52.5844 148.246 52.8892 148.364L54.6007 149.023L56.3375 156.667L58.3197 151.52L57.4223 151.084C57.5881 150.498 57.8931 150.29 58.3373 150.461ZM68.8922 163.853L65.7279 163.004L65.7569 162.896C65.8897 162.4 66.1593 162.188 66.5657 162.258L66.9651 162.336L66.9786 162.34L66.9632 160.234L64.5291 159.581L63.4429 161.363L64.5165 161.738C64.529 161.799 64.4919 161.92 64.4051 162.099C64.2322 162.42 63.9879 162.538 63.6724 162.454L60.9543 161.725L60.9833 161.617C61.1162 161.121 61.3858 160.908 61.7921 160.979L62.2997 161.086L67.1286 153.451C67.5259 153.519 67.9812 153.641 68.4944 153.817L68.8114 162.802L69.7363 163.137C69.7488 163.198 69.7117 163.318 69.6249 163.498C69.452 163.819 69.2077 163.937 68.8922 163.853ZM65.0289 158.744L66.9626 159.263L66.9465 155.591L65.0289 158.744ZM81.0897 156.602L83.6997 157.037C83.6997 157.037 83.6935 157.074 83.6813 157.148C83.5968 157.654 83.349 157.892 82.9378 157.861L82.6018 157.833L78.2695 165.854L76.8748 165.621L75.5268 156.682L74.6568 156.452C74.6384 156.392 74.6637 156.268 74.7328 156.081C74.874 155.745 75.1057 155.604 75.4279 155.658L78.604 156.187C78.5258 156.543 78.4475 156.757 78.3692 156.829C78.2235 156.966 78.0478 157.027 77.8422 157.011L77.4233 156.97L78.2628 163.681L81.3957 157.661L80.3186 157.396C80.3002 157.336 80.3255 157.212 80.3946 157.025C80.5358 156.689 80.7675 156.548 81.0897 156.602ZM91.042 158.713C89.3742 158.616 88.466 159.839 88.3174 162.383C88.2428 163.659 88.3909 164.645 88.7617 165.34C89.1418 166.035 89.7322 166.411 90.533 166.467C91.3814 166.507 92.0387 166.218 92.5049 165.6C92.9809 164.974 93.2559 164.027 93.33 162.76C93.404 161.492 93.246 160.516 92.8561 159.829C92.476 159.134 91.8713 158.762 91.042 158.713ZM86.4932 162.402C86.5851 160.828 87.0579 159.617 87.9115 158.769C88.7656 157.912 89.8728 157.523 91.2331 157.603C92.5935 157.682 93.6071 158.176 94.2739 159.084C94.9506 159.984 95.2429 161.221 95.1509 162.796C95.0595 164.361 94.5821 165.572 93.7187 166.429C92.8651 167.276 91.7582 167.66 90.3978 167.581C89.0375 167.501 88.0236 167.012 87.3562 166.113C86.6894 165.205 86.4017 163.968 86.4932 162.402ZM99.6607 158.218L102.93 158.003C106.189 157.789 107.923 159.26 108.13 162.417C108.233 163.982 107.888 165.207 107.095 166.091C106.302 166.976 105.147 167.468 103.628 167.568L99.5632 167.835C99.5206 167.613 99.5304 167.407 99.5927 167.216C99.6643 167.024 99.7972 166.912 99.9916 166.881L100.491 166.792L99.9913 159.192L99.9774 159.193L98.994 159.173C98.9632 158.848 98.9945 158.612 99.0878 158.466C99.181 158.319 99.372 158.237 99.6607 158.218ZM103.146 166.631C104.352 166.627 105.206 166.304 105.706 165.663C106.206 165.022 106.411 164.003 106.319 162.606C106.226 161.2 105.881 160.217 105.283 159.658C104.694 159.089 103.772 158.869 102.518 158.998L101.738 159.077L102.234 166.635L103.146 166.631ZM120.772 165.227L117.568 165.911L117.545 165.801C117.437 165.299 117.581 164.987 117.975 164.865L118.366 164.753L118.379 164.75L117.408 162.881L114.943 163.408L114.786 165.488L115.913 165.334C115.952 165.383 115.974 165.507 115.978 165.706C115.97 166.071 115.806 166.287 115.487 166.355L112.735 166.943L112.712 166.833C112.604 166.331 112.748 166.019 113.142 165.897L113.642 165.761L114.47 156.766C114.855 156.646 115.316 156.547 115.853 156.471L120.222 164.328L121.198 164.205C121.237 164.254 121.259 164.378 121.263 164.578C121.255 164.942 121.091 165.158 120.772 165.227ZM115.008 162.435L116.965 162.017L115.281 158.755L115.008 162.435ZM127.485 153.107L129.967 152.149C129.967 152.149 129.98 152.184 130.007 152.253C130.192 152.732 130.1 153.063 129.73 153.246L129.414 153.398L128.652 158.615L129.747 161.449L129.76 161.444L130.718 161.164C130.989 161.71 130.902 162.068 130.458 162.24L127.52 163.375L127.479 163.27C127.294 162.792 127.387 162.461 127.756 162.278L128.125 162.105L127.04 159.298L122.894 155.947L122.028 156.191C121.982 156.149 121.941 156.03 121.905 155.834C121.855 155.472 121.983 155.233 122.288 155.115L125.448 153.894C125.562 154.241 125.603 154.465 125.573 154.567C125.517 154.758 125.396 154.9 125.211 154.991L124.804 155.179L124.778 155.189L127.767 157.681L128.275 153.868L127.226 154.183C127.179 154.141 127.138 154.022 127.102 153.826C127.053 153.465 127.181 153.225 127.485 153.107ZM144.11 155.622L141.265 157.245L141.209 157.148C140.955 156.702 140.997 156.361 141.335 156.125L141.674 155.9L141.686 155.893L140.194 154.407L138.005 155.656L138.486 157.686L139.513 157.197C139.565 157.232 139.623 157.344 139.688 157.532C139.791 157.882 139.7 158.138 139.417 158.3L136.972 159.694L136.917 159.597C136.662 159.151 136.704 158.81 137.043 158.574L137.479 158.293L135.54 149.47C135.87 149.239 136.28 149.005 136.768 148.77L143.314 154.932L144.207 154.519C144.259 154.554 144.317 154.666 144.382 154.854C144.485 155.204 144.394 155.46 144.11 155.622ZM137.771 154.709L139.51 153.717L136.916 151.119L137.771 154.709Z" fill="#D6AD3F"/>
<path d="M51.4433 47.0516C51.4433 47.0516 51.3699 46.8649 51.2233 46.4916C51.0899 46.1049 50.9099 45.6049 50.6833 44.9916C50.4699 44.3649 50.2233 43.6849 49.9433 42.9516C49.6766 42.2049 49.4033 41.4649 49.1233 40.7316C48.8566 39.9849 48.6099 39.3049 48.3833 38.6916C48.1699 38.0782 47.9899 37.5849 47.8433 37.2116C47.7099 36.8382 47.6433 36.6516 47.6433 36.6516C47.4299 36.1049 47.2166 35.7116 47.0033 35.4716C46.7899 35.2316 46.4699 35.0716 46.0433 34.9916C45.8566 34.9516 45.7233 34.9182 45.6433 34.8916C45.5766 34.8649 45.5433 34.7449 45.5433 34.5316C45.5433 34.3049 45.6233 34.1849 45.7833 34.1716C45.9433 34.1449 46.1299 34.1316 46.3433 34.1316C47.2366 34.1449 47.9299 34.3116 48.4233 34.6316C48.9166 34.9382 49.3099 35.4716 49.6033 36.2316L52.5033 44.0316H52.5633L55.3233 36.0116C55.4699 35.5849 55.4766 35.3182 55.3433 35.2116C55.2099 35.0916 54.9099 35.0316 54.4433 35.0316C54.3099 35.0316 54.1966 35.0182 54.1033 34.9916C54.0099 34.9649 53.9566 34.8382 53.9433 34.6116C53.9433 34.5049 53.9699 34.4049 54.0233 34.3116C54.0766 34.2182 54.1633 34.1716 54.2833 34.1716C54.7099 34.1849 55.0766 34.1982 55.3833 34.2116C55.7033 34.2249 56.0633 34.2316 56.4633 34.2316C56.7299 34.2316 56.9499 34.2316 57.1233 34.2316C57.2966 34.2182 57.4699 34.2116 57.6433 34.2116C57.8299 34.1982 58.0633 34.1849 58.3433 34.1716C58.4766 34.1716 58.5699 34.2182 58.6233 34.3116C58.6766 34.4049 58.7033 34.5049 58.7033 34.6116C58.6899 34.8382 58.6366 34.9649 58.5433 34.9916C58.4633 35.0182 58.3499 35.0316 58.2033 35.0316C57.6966 35.0316 57.2966 35.1249 57.0033 35.3116C56.7099 35.4982 56.4566 35.8582 56.2433 36.3916C56.2433 36.3782 56.1699 36.5649 56.0233 36.9516C55.8899 37.3249 55.7099 37.8316 55.4833 38.4716C55.2566 39.0982 55.0033 39.7916 54.7233 40.5516C54.4566 41.3116 54.1833 42.0716 53.9033 42.8316C53.6233 43.5916 53.3699 44.2916 53.1433 44.9316C52.9166 45.5716 52.7299 46.0849 52.5833 46.4716C52.4499 46.8582 52.3833 47.0516 52.3833 47.0516H51.4433ZM63.9852 46.9116C63.8652 46.9116 63.7785 46.8649 63.7252 46.7716C63.6718 46.6782 63.6452 46.5782 63.6452 46.4716C63.6585 46.2449 63.7118 46.1182 63.8052 46.0916C63.8985 46.0649 64.0118 46.0516 64.1452 46.0516C64.5718 46.0516 64.8718 45.9782 65.0452 45.8316C65.2185 45.6716 65.3252 45.4782 65.3652 45.2516C65.4185 45.0116 65.4452 44.7649 65.4452 44.5116V36.5716C65.4452 36.3182 65.4185 36.0782 65.3652 35.8516C65.3252 35.6116 65.2185 35.4182 65.0452 35.2716C64.8718 35.1116 64.5718 35.0316 64.1452 35.0316C64.0118 35.0316 63.8985 35.0182 63.8052 34.9916C63.7118 34.9649 63.6585 34.8382 63.6452 34.6116C63.6452 34.5049 63.6718 34.4049 63.7252 34.3116C63.7785 34.2182 63.8652 34.1716 63.9852 34.1716C64.4252 34.1849 64.8318 34.1982 65.2052 34.2116C65.5785 34.2249 65.9652 34.2316 66.3652 34.2316H72.6452C72.7918 34.2316 72.9118 34.2649 73.0052 34.3316C73.1118 34.3982 73.1652 34.5249 73.1652 34.7116L73.2252 37.5116C73.2252 37.6449 73.1585 37.7449 73.0252 37.8116C72.9052 37.8782 72.7918 37.9116 72.6852 37.9116C72.5385 37.9116 72.4052 37.8849 72.2852 37.8316C72.1652 37.7649 72.0918 37.6716 72.0652 37.5516C71.9718 36.9516 71.8585 36.4716 71.7252 36.1116C71.6052 35.7382 71.4185 35.4716 71.1652 35.3116C70.9252 35.1382 70.5718 35.0449 70.1052 35.0316H67.4252V40.1116H71.0452C71.1518 40.1249 71.2252 40.1782 71.2652 40.2716C71.3185 40.3649 71.3452 40.4649 71.3452 40.5716C71.3452 40.6649 71.3185 40.7582 71.2652 40.8516C71.2252 40.9316 71.1518 40.9716 71.0452 40.9716H67.4252V44.7516C67.4385 44.9249 67.4652 45.1182 67.5052 45.3316C67.5452 45.5316 67.6585 45.7049 67.8452 45.8516C68.0452 45.9982 68.3718 46.0649 68.8252 46.0516H70.6652C71.1318 46.0382 71.4852 45.9649 71.7252 45.8316C71.9785 45.6849 72.1785 45.4449 72.3252 45.1116C72.4718 44.7782 72.6318 44.3182 72.8052 43.7316C72.8585 43.5982 72.9452 43.5116 73.0652 43.4716C73.1985 43.4316 73.3385 43.4249 73.4852 43.4516C73.5918 43.4649 73.6985 43.5116 73.8052 43.5916C73.9252 43.6716 73.9785 43.7782 73.9652 43.9116L73.5652 46.4316C73.5252 46.6182 73.4585 46.7382 73.3652 46.7916C73.2852 46.8316 73.1585 46.8516 72.9852 46.8516H66.3852C65.9852 46.8516 65.5918 46.8516 65.2052 46.8516C64.8318 46.8649 64.4252 46.8849 63.9852 46.9116ZM75.4402 46.9116C75.3468 46.9116 75.2668 46.8716 75.2002 46.7916C75.1468 46.6982 75.1202 46.6049 75.1202 46.5116C75.1335 46.3116 75.1802 46.2049 75.2602 46.1916C75.3535 46.1649 75.4602 46.1516 75.5802 46.1516C75.9535 46.1516 76.2068 46.0916 76.3402 45.9716C76.4868 45.8382 76.5668 45.6649 76.5802 45.4516C76.6068 45.2382 76.6202 45.0182 76.6202 44.7916V35.0316C76.6202 34.7916 76.6068 34.5716 76.5802 34.3716C76.5668 34.1582 76.4935 33.9916 76.3602 33.8716C76.2268 33.7382 75.9735 33.6716 75.6002 33.6716C75.4802 33.6716 75.3668 33.6582 75.2602 33.6316C75.1668 33.5916 75.1202 33.4716 75.1202 33.2716C75.1202 33.0716 75.2268 32.9516 75.4402 32.9116C76.0535 32.8182 76.5202 32.7249 76.8402 32.6316C77.1735 32.5382 77.4268 32.4582 77.6002 32.3916C77.7735 32.3249 77.9268 32.2849 78.0602 32.2716C78.1668 32.2582 78.2535 32.2782 78.3202 32.3316C78.4002 32.3849 78.4402 32.4916 78.4402 32.6516V44.7916C78.4402 45.0182 78.4468 45.2382 78.4602 45.4516C78.4868 45.6649 78.5668 45.8382 78.7002 45.9716C78.8468 46.0916 79.1068 46.1516 79.4802 46.1516C79.6002 46.1516 79.7002 46.1649 79.7802 46.1916C79.8735 46.2049 79.9268 46.3116 79.9402 46.5116C79.9402 46.6049 79.9135 46.6982 79.8602 46.7916C79.8068 46.8716 79.7268 46.9116 79.6202 46.9116C79.2335 46.8849 78.8735 46.8649 78.5402 46.8516C78.2202 46.8516 77.8802 46.8516 77.5202 46.8516C77.1602 46.8516 76.8202 46.8516 76.5002 46.8516C76.1802 46.8649 75.8268 46.8849 75.4402 46.9116ZM85.7461 47.0916C84.7194 47.0916 83.8528 46.8716 83.1461 46.4316C82.4528 45.9916 81.9328 45.4049 81.5861 44.6716C81.2394 43.9382 81.0661 43.1382 81.0661 42.2716C81.0661 41.6849 81.1661 41.1182 81.3661 40.5716C81.5794 40.0116 81.8794 39.5049 82.2661 39.0516C82.6528 38.5849 83.1194 38.2182 83.6661 37.9516C84.2128 37.6849 84.8328 37.5516 85.5261 37.5516C86.7528 37.5516 87.6728 37.8716 88.2861 38.5116C88.9128 39.1382 89.2728 39.9382 89.3661 40.9116C89.3661 41.3782 89.2328 41.6849 88.9661 41.8316C88.7128 41.9782 88.3794 42.0516 87.9661 42.0516H83.1061C83.1061 42.8249 83.2128 43.5182 83.4261 44.1316C83.6394 44.7316 83.9728 45.2116 84.4261 45.5716C84.8928 45.9182 85.5061 46.0916 86.2661 46.0916C86.8261 46.0916 87.3061 45.9716 87.7061 45.7316C88.1061 45.4916 88.4928 45.0716 88.8661 44.4716C88.9728 44.3382 89.1194 44.3316 89.3061 44.4516C89.4128 44.5049 89.4794 44.5916 89.5061 44.7116C89.5328 44.8182 89.5194 44.9116 89.4661 44.9916C89.0528 45.6449 88.5328 46.1582 87.9061 46.5316C87.2794 46.9049 86.5594 47.0916 85.7461 47.0916ZM83.1061 41.2916H86.3661C86.6861 41.2916 86.9394 41.2316 87.1261 41.1116C87.3261 40.9782 87.4328 40.7582 87.4461 40.4516C87.4461 39.8782 87.2861 39.3716 86.9661 38.9316C86.6594 38.4782 86.1794 38.2516 85.5261 38.2516C84.8594 38.2516 84.2994 38.5182 83.8461 39.0516C83.4061 39.5849 83.1594 40.3316 83.1061 41.2916ZM94.7973 47.0516C94.464 46.3182 94.1307 45.5182 93.7973 44.6516C93.464 43.7849 93.1373 42.9382 92.8173 42.1116C92.4973 41.2849 92.1907 40.5649 91.8973 39.9516C91.684 39.4582 91.4773 39.1116 91.2773 38.9116C91.0773 38.6982 90.7773 38.5649 90.3773 38.5116C90.204 38.4849 90.084 38.4582 90.0173 38.4316C89.964 38.4049 89.9307 38.3049 89.9173 38.1316C89.904 37.9049 89.964 37.7849 90.0973 37.7716C90.244 37.7449 90.4173 37.7249 90.6173 37.7116C91.444 37.6716 92.0907 37.7916 92.5573 38.0716C93.024 38.3516 93.404 38.8249 93.6973 39.4916C93.884 39.9049 94.0907 40.4182 94.3173 41.0316C94.5573 41.6449 94.804 42.2649 95.0573 42.8916C95.3107 43.5182 95.5573 44.0849 95.7973 44.5916H95.8573L97.8373 39.3516C97.9707 38.9649 97.9773 38.7249 97.8573 38.6316C97.7373 38.5382 97.4773 38.4916 97.0773 38.4916C96.9573 38.4916 96.8573 38.4849 96.7773 38.4716C96.6973 38.4449 96.6507 38.3316 96.6373 38.1316C96.6373 38.0516 96.6573 37.9649 96.6973 37.8716C96.7507 37.7782 96.824 37.7316 96.9173 37.7316C97.304 37.7449 97.6373 37.7582 97.9173 37.7716C98.1973 37.7849 98.5107 37.7916 98.8573 37.7916C99.0973 37.7916 99.2907 37.7916 99.4373 37.7916C99.584 37.7782 99.7373 37.7716 99.8973 37.7716C100.057 37.7582 100.264 37.7449 100.517 37.7316C100.624 37.7316 100.697 37.7782 100.737 37.8716C100.791 37.9649 100.817 38.0516 100.817 38.1316C100.804 38.3316 100.751 38.4449 100.657 38.4716C100.577 38.4849 100.484 38.4916 100.377 38.4916C99.9373 38.4916 99.584 38.5716 99.3173 38.7316C99.064 38.8916 98.844 39.2049 98.6573 39.6716C98.6573 39.6716 98.584 39.8516 98.4373 40.2116C98.304 40.5582 98.124 41.0116 97.8973 41.5716C97.6707 42.1316 97.4307 42.7249 97.1773 43.3516C96.924 43.9782 96.6773 44.5716 96.4373 45.1316C96.2107 45.6916 96.024 46.1516 95.8773 46.5116C95.7307 46.8716 95.6507 47.0516 95.6373 47.0516H94.7973ZM103.645 47.0916C102.832 47.0916 102.178 46.8582 101.685 46.3916C101.205 45.9249 100.965 45.3649 100.965 44.7116C100.965 44.0316 101.138 43.4982 101.485 43.1116C101.845 42.7249 102.312 42.4382 102.885 42.2516C103.472 42.0649 104.105 41.9382 104.785 41.8716C105.478 41.8049 106.152 41.7516 106.805 41.7116V40.1316C106.805 39.5049 106.645 39.0182 106.325 38.6716C106.018 38.3116 105.492 38.1316 104.745 38.1316C104.372 38.1316 104.018 38.2516 103.685 38.4916C103.365 38.7316 103.205 39.0782 103.205 39.5316C103.205 39.7449 103.258 39.9249 103.365 40.0716C103.472 40.2182 103.578 40.3316 103.685 40.4116C103.792 40.4916 103.845 40.5449 103.845 40.5716C103.845 40.6249 103.765 40.7249 103.605 40.8716C103.458 41.0049 103.252 41.0716 102.985 41.0716C102.572 41.0716 102.252 40.9182 102.025 40.6116C101.798 40.3049 101.685 39.9649 101.685 39.5916C101.685 39.0849 101.838 38.6849 102.145 38.3916C102.465 38.0982 102.872 37.8849 103.365 37.7516C103.858 37.6182 104.358 37.5516 104.865 37.5516C105.465 37.5516 106.045 37.6249 106.605 37.7716C107.178 37.9182 107.645 38.1982 108.005 38.6116C108.378 39.0249 108.565 39.6449 108.565 40.4716V45.1316C108.578 45.2649 108.612 45.4249 108.665 45.6116C108.718 45.7982 108.818 45.9649 108.965 46.1116C109.125 46.2449 109.338 46.3116 109.605 46.3116C109.698 46.3116 109.772 46.3316 109.825 46.3716C109.878 46.3982 109.905 46.4849 109.905 46.6316C109.905 46.7516 109.838 46.8449 109.705 46.9116C109.572 46.9782 109.418 47.0249 109.245 47.0516C109.072 47.0782 108.925 47.0916 108.805 47.0916C108.312 47.0916 107.872 46.9516 107.485 46.6716C107.098 46.3782 106.872 45.9782 106.805 45.4716C106.512 46.0049 106.072 46.4116 105.485 46.6916C104.912 46.9582 104.298 47.0916 103.645 47.0916ZM104.285 46.0116C104.738 46.0116 105.152 45.8982 105.525 45.6716C105.912 45.4449 106.218 45.1382 106.445 44.7516C106.685 44.3516 106.805 43.9116 106.805 43.4316V42.2916C105.432 42.3849 104.452 42.6049 103.865 42.9516C103.278 43.2982 102.985 43.8649 102.985 44.6516C102.985 45.5582 103.418 46.0116 104.285 46.0116ZM114.488 47.1916C114.088 47.1916 113.708 47.0916 113.348 46.8916C112.988 46.6916 112.688 46.3849 112.448 45.9716C112.221 45.5582 112.108 45.0382 112.108 44.4116V38.5316L110.948 38.5716C110.855 38.5716 110.781 38.5382 110.728 38.4716C110.688 38.3916 110.668 38.3049 110.668 38.2116C110.668 37.9449 110.761 37.7916 110.948 37.7516C111.441 37.6582 111.815 37.5049 112.068 37.2916C112.321 37.0649 112.515 36.7982 112.648 36.4916C112.795 36.1849 112.928 35.8516 113.048 35.4916C113.088 35.3849 113.148 35.3182 113.228 35.2916C113.308 35.2516 113.395 35.2316 113.488 35.2316C113.568 35.2316 113.655 35.2516 113.748 35.2916C113.855 35.3316 113.908 35.4049 113.908 35.5116L113.768 37.7916L116.108 37.6516C116.228 37.6382 116.308 37.6716 116.348 37.7516C116.388 37.8316 116.408 37.9249 116.408 38.0316C116.408 38.1649 116.381 38.2982 116.328 38.4316C116.288 38.5649 116.235 38.6316 116.168 38.6316L113.928 38.5716V44.6516C113.928 45.0382 114.008 45.3916 114.168 45.7116C114.341 46.0316 114.648 46.1916 115.088 46.1916C115.235 46.1916 115.401 46.1782 115.588 46.1516C115.775 46.1249 115.975 46.0649 116.188 45.9716C116.241 45.9449 116.295 45.9249 116.348 45.9116C116.401 45.8849 116.455 45.8716 116.508 45.8716C116.615 45.8716 116.695 45.9182 116.748 46.0116C116.801 46.0916 116.848 46.1782 116.888 46.2716C116.928 46.3916 116.895 46.4849 116.788 46.5516C116.375 46.8182 115.995 46.9916 115.648 47.0716C115.301 47.1516 114.915 47.1916 114.488 47.1916ZM123.246 47.0916C122.219 47.0916 121.353 46.8716 120.646 46.4316C119.953 45.9916 119.433 45.4049 119.086 44.6716C118.739 43.9382 118.566 43.1382 118.566 42.2716C118.566 41.6849 118.666 41.1182 118.866 40.5716C119.079 40.0116 119.379 39.5049 119.766 39.0516C120.153 38.5849 120.619 38.2182 121.166 37.9516C121.713 37.6849 122.333 37.5516 123.026 37.5516C124.253 37.5516 125.173 37.8716 125.786 38.5116C126.413 39.1382 126.773 39.9382 126.866 40.9116C126.866 41.3782 126.733 41.6849 126.466 41.8316C126.213 41.9782 125.879 42.0516 125.466 42.0516H120.606C120.606 42.8249 120.713 43.5182 120.926 44.1316C121.139 44.7316 121.473 45.2116 121.926 45.5716C122.393 45.9182 123.006 46.0916 123.766 46.0916C124.326 46.0916 124.806 45.9716 125.206 45.7316C125.606 45.4916 125.993 45.0716 126.366 44.4716C126.473 44.3382 126.619 44.3316 126.806 44.4516C126.913 44.5049 126.979 44.5916 127.006 44.7116C127.033 44.8182 127.019 44.9116 126.966 44.9916C126.553 45.6449 126.033 46.1582 125.406 46.5316C124.779 46.9049 124.059 47.0916 123.246 47.0916ZM120.606 41.2916H123.866C124.186 41.2916 124.439 41.2316 124.626 41.1116C124.826 40.9782 124.933 40.7582 124.946 40.4516C124.946 39.8782 124.786 39.3716 124.466 38.9316C124.159 38.4782 123.679 38.2516 123.026 38.2516C122.359 38.2516 121.799 38.5182 121.346 39.0516C120.906 39.5849 120.659 40.3316 120.606 41.2916ZM139.418 47.2516C138.352 47.2516 137.458 47.0649 136.738 46.6916C136.018 46.3182 135.478 45.8382 135.118 45.2516C134.758 44.6649 134.578 44.0449 134.578 43.3916V36.5716C134.578 36.3182 134.552 36.0782 134.498 35.8516C134.458 35.6116 134.352 35.4182 134.178 35.2716C134.005 35.1116 133.705 35.0316 133.278 35.0316C133.145 35.0316 133.032 35.0182 132.938 34.9916C132.845 34.9649 132.792 34.8382 132.778 34.6116C132.778 34.5049 132.805 34.4049 132.858 34.3116C132.912 34.2182 133.005 34.1716 133.138 34.1716C133.565 34.1849 133.965 34.1982 134.338 34.2116C134.712 34.2249 135.098 34.2316 135.498 34.2316C136.312 34.2316 137.145 34.2116 137.998 34.1716C138.132 34.1716 138.225 34.2182 138.278 34.3116C138.332 34.4049 138.358 34.5049 138.358 34.6116C138.345 34.8116 138.305 34.9316 138.238 34.9716C138.172 35.0116 138.078 35.0316 137.958 35.0316C137.505 35.0316 137.178 35.1049 136.978 35.2516C136.792 35.3849 136.678 35.5716 136.638 35.8116C136.598 36.0382 136.572 36.2916 136.558 36.5716V42.8116C136.558 43.1582 136.592 43.5249 136.658 43.9116C136.738 44.2849 136.885 44.6382 137.098 44.9716C137.312 45.2916 137.625 45.5582 138.038 45.7716C138.465 45.9716 139.032 46.0716 139.738 46.0716C140.645 46.0716 141.338 45.9249 141.818 45.6316C142.312 45.3249 142.652 44.9449 142.838 44.4916C143.025 44.0382 143.118 43.5716 143.118 43.0916V37.8316C143.118 36.9516 143.085 36.3182 143.018 35.9316C142.952 35.5316 142.805 35.2849 142.578 35.1916C142.365 35.0849 142.032 35.0316 141.578 35.0316C141.445 35.0316 141.332 35.0182 141.238 34.9916C141.145 34.9649 141.092 34.8382 141.078 34.6116C141.078 34.5049 141.105 34.4049 141.158 34.3116C141.212 34.2182 141.305 34.1716 141.438 34.1716C141.865 34.1849 142.245 34.1982 142.578 34.2116C142.912 34.2249 143.278 34.2316 143.678 34.2316C144.078 34.2316 144.445 34.2249 144.778 34.2116C145.112 34.1982 145.492 34.1849 145.918 34.1716C146.052 34.1716 146.145 34.2182 146.198 34.3116C146.252 34.4049 146.278 34.5049 146.278 34.6116C146.265 34.8116 146.225 34.9316 146.158 34.9716C146.092 35.0116 145.998 35.0316 145.878 35.0316C145.518 35.0316 145.225 35.0516 144.998 35.0916C144.785 35.1316 144.618 35.2382 144.498 35.4116C144.392 35.5716 144.318 35.8382 144.278 36.2116C144.252 36.5716 144.238 37.0716 144.238 37.7116V43.2916C144.238 43.9982 144.085 44.6049 143.778 45.1116C143.485 45.6182 143.092 46.0316 142.598 46.3516C142.118 46.6582 141.598 46.8849 141.038 47.0316C140.478 47.1782 139.938 47.2516 139.418 47.2516Z" fill="#D9AD49"/>
<defs>
<linearGradient id="paint0_linear_4137_261" x1="95.998" y1="-17.1484" x2="96.006" y2="144.852" gradientUnits="userSpaceOnUse">
<stop stop-color="#002750"/>
<stop offset="0.61059" stop-color="#00264D"/>
<stop offset="0.898744"/>
</linearGradient>
<linearGradient id="paint1_linear_4137_261" x1="96" y1="147.352" x2="96" y2="185.352" gradientUnits="userSpaceOnUse">
<stop stop-color="#073A72"/>
<stop offset="1"/>
</linearGradient>
</defs>
</svg>
