<svg width="575" height="239" viewBox="0 0 575 239" fill="none" xmlns="http://www.w3.org/2000/svg">
<path d="M155 24.8516C123.4 28.4516 102.5 12.3516 96 3.85156C75.7202 25.2793 50.1634 27.0634 38.5 25.1354C37.9708 25.048 37.4702 24.9528 37 24.8516V65.8516C38.6 124.652 77 143.018 96 144.852C144.4 136.852 155.5 88.8516 155 65.8516V24.8516Z" fill="url(#paint0_linear_4119_256)" stroke="#D9AD49" stroke-width="5"/>
<path d="M128 61.8516C129.667 61.8516 131.333 61.8516 133 61.8516C132.975 62.8074 132.95 63.7632 132.925 64.7191C132.702 73.2632 132.478 81.8074 132.255 90.3516L132.311 92.5356L130.087 92.0568C122.212 90.1673 113.095 90.4812 105.9 94.5983C105.112 95.0593 104.357 95.5661 103.633 96.1255C103.211 95.6095 102.789 95.0936 102.367 94.5776C103.128 93.9229 103.927 93.3232 104.765 92.7725C112.504 87.8544 121.981 87.0168 130.913 88.6464L128.745 90.3516C128.522 81.8074 128.298 73.2632 128.075 64.7191C128.05 63.7632 128.025 62.8074 128 61.8516Z" fill="#D3A439"/>
<path d="M64.5 61.8516C62.8333 61.8516 61.1667 61.8516 59.5 61.8516C59.525 62.8074 59.55 63.7632 59.575 64.7191C59.7985 73.2632 60.0219 81.8074 60.2454 90.3516L60.189 92.5356L62.4134 92.0568C70.2875 90.1673 79.4049 90.4812 86.5998 94.5983C87.3884 95.0593 88.1434 95.5661 88.8668 96.1255C89.2889 95.6095 89.7111 95.0936 90.1332 94.5776C89.3725 93.9229 88.5733 93.3232 87.7352 92.7725C79.9961 87.8544 70.5191 87.0168 61.5866 88.6464L63.7546 90.3516C63.9781 81.8074 64.2015 73.2632 64.425 64.7191C64.45 63.7632 64.475 62.8074 64.5 61.8516Z" fill="#D3A439"/>
<path d="M96 65.3519C106.4 54.1519 119 56.0185 124 58.3519V83.8519C109.6 81.8519 101.667 89.3519 99.5 93.3519H96.25M96 65.3519C93.3333 60.6852 84 52.7519 68 58.3519V83.8519C74.8333 83.0185 89.4 83.7519 93 93.3519H96.25M96 65.3519L96.25 93.3519" stroke="#D9AD49" stroke-width="2"/>
<ellipse cx="96.5" cy="98.3516" rx="4.5" ry="1.5" fill="#D9A733"/>
<path d="M116.5 131.852V115.852C119.7 116.252 121.167 118.352 121.5 119.352V128.352C120.7 129.952 117.833 131.352 116.5 131.852Z" fill="#D3AA3C"/>
<path d="M92 117.352H78.5C83.3 117.752 85.8333 119.185 86.5 119.852H92C95.6 118.652 93.5 117.685 92 117.352Z" fill="#D3AA3C"/>
<path d="M92 121.852H74L92 123.852C94.4 123.052 93 122.185 92 121.852Z" fill="#D3AA3C"/>
<path d="M92 124.852L74 125.352L92 126.852C94.4 126.052 93 125.185 92 124.852Z" fill="#D3AA3C"/>
<path d="M91.5 129.352L74 129.852L91.5 131.352C94.3 130.152 92.6667 129.518 91.5 129.352Z" fill="#D3AA3C"/>
<path d="M92 133.852H82L85 136.352H92C94.4 134.352 93 133.852 92 133.852Z" fill="#D3AA3C"/>
<path d="M109.5 106.352H78L93 107.352C95.8 109.352 94.1667 112.185 93 113.352L74.5 113.852H109.5C108.7 112.652 109.167 108.352 109.5 106.352Z" fill="#D3AA3C"/>
<path d="M91 109.352H87C87.4 110.152 84.8333 111.018 83.5 111.352H91C93 110.552 91.8333 109.685 91 109.352Z" fill="#D3AA3C"/>
<path d="M115 115.852H94.5C97.3 122.758 95.6667 133.063 94.5 137.352H105.5L115 132.852V115.852Z" fill="#D3AA3C"/>
<path d="M172.254 45.3479C169.909 43.8668 166.154 39.3095 169.893 32.9286C172.516 35.6563 176.659 41.959 172.254 45.3479Z" fill="#D6AD3F" stroke="#BEA05A" stroke-width="0.5"/>
<path d="M119.771 153.618C140.978 143.871 181.163 108.571 172.252 45.345" stroke="#BEA05A" stroke-width="0.5"/>
<path d="M147.876 149.522C143.241 146.08 135.286 146.069 131.887 146.493C136.836 138.309 133.939 135.788 131.872 135.551C125.483 138.715 126.377 147.079 127.623 150.866C136.893 157.75 144.987 152.838 147.876 149.522Z" fill="#D6AD3F" stroke="#BEA05A" stroke-width="0.5"/>
<path d="M161.686 134.373C156.447 131.88 148.658 133.39 145.418 134.456C148.592 125.475 145.243 123.554 143.171 123.716C137.563 128.043 140.144 136.085 142.136 139.564C152.614 144.551 159.535 138.181 161.686 134.373Z" fill="#D6AD3F" stroke="#BEA05A" stroke-width="0.5"/>
<path d="M171.251 117.386C165.68 115.713 160.504 118.685 157.48 120.23C159.161 110.868 153.282 109.175 151.264 109.649C146.43 114.777 150.275 122.338 152.802 125.478C163.944 128.823 169.744 121.477 171.251 117.386Z" fill="#D6AD3F" stroke="#BEA05A" stroke-width="0.5"/>
<path d="M178.831 97.5124C173.021 97.13 168.704 101.186 166.137 103.369C165.532 93.8686 159.417 93.5355 157.571 94.449C154.102 100.53 159.644 107.037 162.848 109.531C174.468 110.296 178.345 101.837 178.831 97.5124Z" fill="#D6AD3F" stroke="#BEA05A" stroke-width="0.5"/>
<path d="M182.684 79.2357C176.968 79.752 173.503 84.3979 171.401 86.9362C169.101 77.6983 163.098 78.3097 161.468 79.4903C159.192 85.9951 165.751 91.5362 169.315 93.4936C180.748 92.4611 182.992 83.5581 182.684 79.2357Z" fill="#D6AD3F" stroke="#BEA05A" stroke-width="0.5"/>
<path d="M180.433 66.5541C176.737 66.8923 174.493 69.8963 173.132 71.5376C171.653 65.5722 167.772 65.9721 166.718 66.736C165.24 70.9398 169.476 74.5137 171.778 75.7752C179.17 75.0988 180.628 69.346 180.433 66.5541Z" fill="#D6AD3F" stroke="#BEA05A" stroke-width="0.5"/>
<path d="M178.123 47.2455C174.744 48.7158 173.621 52.2655 172.88 54.2471C169.503 49.0433 165.97 50.6297 165.227 51.6829C165.227 56.1333 170.413 58.2095 173.006 58.6914C179.764 55.7508 179.233 49.8355 178.123 47.2455Z" fill="#D6AD3F" stroke="#BEA05A" stroke-width="0.5"/>
<path d="M19.7445 45.3479C22.0892 43.8668 25.8438 39.3095 22.105 32.9286C19.4824 35.6563 15.3387 41.959 19.7445 45.3479Z" fill="#D6AD3F" stroke="#BEA05A" stroke-width="0.5"/>
<path d="M72.2268 153.622C51.0204 143.875 10.8352 108.575 19.7458 45.349" stroke="#BEA05A" stroke-width="0.5"/>
<path d="M44.1238 149.522C48.7588 146.08 56.7142 146.069 60.1125 146.493C55.1644 138.309 58.0611 135.788 60.1279 135.551C66.517 138.715 65.623 147.079 64.3773 150.866C55.1075 157.75 47.0126 152.838 44.1238 149.522Z" fill="#D6AD3F" stroke="#BEA05A" stroke-width="0.5"/>
<path d="M30.3136 134.377C35.5525 131.884 43.3419 133.394 46.5817 134.46C43.4077 125.479 46.7573 123.558 48.8288 123.72C54.4373 128.047 51.8561 136.089 49.8643 139.568C39.3865 144.555 32.4647 138.185 30.3136 134.377Z" fill="#D6AD3F" stroke="#BEA05A" stroke-width="0.5"/>
<path d="M20.7489 117.386C26.3199 115.713 31.4963 118.685 34.5203 120.23C32.8392 110.868 38.7182 109.175 40.7357 109.649C45.57 114.777 41.7251 122.338 39.1984 125.478C28.0563 128.823 22.2562 121.477 20.7489 117.386Z" fill="#D6AD3F" stroke="#BEA05A" stroke-width="0.5"/>
<path d="M13.1673 97.5163C18.9774 97.1339 23.294 101.19 25.8614 103.373C26.4665 93.8725 32.5806 93.5394 34.4266 94.4529C37.8956 100.534 32.3543 107.041 29.15 109.535C17.5299 110.3 13.6531 101.841 13.1673 97.5163Z" fill="#D6AD3F" stroke="#BEA05A" stroke-width="0.5"/>
<path d="M9.31365 79.2397C15.0301 79.7559 18.495 84.4018 20.5972 86.9401C22.8975 77.7022 28.9004 78.3136 30.5302 79.4942C32.8062 85.999 26.2472 91.5401 22.6831 93.4975C11.2503 92.465 9.00647 83.5621 9.31365 79.2397Z" fill="#D6AD3F" stroke="#BEA05A" stroke-width="0.5"/>
<path d="M11.5667 66.5581C15.2626 66.8963 17.5066 69.9002 18.8678 71.5416C20.3467 65.5761 24.2279 65.976 25.2825 66.74C26.7596 70.9437 22.5243 74.5176 20.2221 75.7791C12.8303 75.1027 11.3719 69.3499 11.5667 66.5581Z" fill="#D6AD3F" stroke="#BEA05A" stroke-width="0.5"/>
<path d="M13.8771 47.2455C17.256 48.7158 18.3791 52.2655 19.1203 54.2471C22.4966 49.0433 26.0302 50.6297 26.7729 51.6829C26.7734 56.1333 21.5869 58.2095 18.9935 58.6914C12.2356 55.7508 12.7667 49.8355 13.8771 47.2455Z" fill="#D6AD3F" stroke="#BEA05A" stroke-width="0.5"/>
<path d="M42.5 172.352C31.7815 164.852 19.8353 158.363 16.002 157.363C18.6686 155.03 24.402 149.563 26.002 146.363C27.602 143.163 27.3353 137.697 27.002 135.363L45.502 144.363L49.002 138.352C88.202 165.552 128.502 148.697 143.502 136.863L147.002 144.363L165.002 134.863C165.169 138.197 165.602 145.363 166.002 147.363C166.402 149.363 172.835 155.197 176.002 157.863C167.002 158.363 157.5 169.848 147.002 173.348C132.392 178.219 145.169 170.197 150.002 166.363C160.802 157.963 150.864 158.363 146.002 161.363C99.002 190.363 48.7269 162.976 45.502 161.363C42.502 159.863 39.502 159.03 38.002 159.363C35.502 159.919 36.4058 162.094 38.002 163.363C40.502 165.352 47.6044 170.628 49.502 172.352C55.002 177.348 47.502 175.852 42.5 172.352Z" fill="url(#paint1_linear_4119_256)" stroke="#BEA05A" stroke-width="0.5"/>
<path d="M147.002 144.363L154.502 159.863" stroke="#BEA05A" stroke-width="0.5"/>
<path d="M45.7363 143.969L36.502 160.352" stroke="#BEA05A" stroke-width="0.5"/>
<path d="M58.7202 150.822L60.9757 151.742C60.9757 151.742 60.9616 151.777 60.9334 151.846C60.7394 152.321 60.4453 152.498 60.0509 152.378L59.6645 152.25L56.4749 160.066C56.1663 160.082 55.8089 160.006 55.4027 159.841L53.6903 151.476L51.3894 157.114L52.2909 157.573C52.1136 158.156 51.8045 158.357 51.3638 158.177L49.0954 157.252L49.1377 157.148C49.3317 156.673 49.6258 156.495 50.0201 156.616L50.4066 156.743L53.2894 149.679L52.3878 149.22C52.3831 149.158 52.435 149.043 52.5436 148.876C52.7554 148.579 53.0125 148.492 53.315 148.616L55.013 149.309L56.5976 156.987L58.6817 151.879L57.7931 151.426C57.9705 150.843 58.2795 150.642 58.7202 150.822ZM69.0144 164.393L65.8646 163.492L65.8954 163.385C66.0364 162.891 66.3095 162.683 66.7146 162.76L67.1127 162.844L67.1262 162.848L67.1456 160.743L64.7226 160.05L63.6071 161.813L64.6743 162.206C64.6859 162.267 64.6468 162.387 64.557 162.565C64.3788 162.883 64.1326 162.997 63.8185 162.908L61.1129 162.134L61.1436 162.027C61.2847 161.533 61.5578 161.325 61.9629 161.402L62.4687 161.517L67.4232 153.964C67.8193 154.038 68.2725 154.168 68.7827 154.352L68.9511 163.341L69.8703 163.691C69.8818 163.752 69.8427 163.872 69.7529 164.05C69.5747 164.368 69.3285 164.482 69.0144 164.393ZM65.2362 159.221L67.1611 159.771L67.2057 156.1L65.2362 159.221ZM81.2979 157.314L83.9022 157.782C83.9022 157.782 83.8956 157.819 83.8823 157.892C83.7915 158.398 83.5407 158.632 83.1299 158.596L82.7942 158.564L78.3606 166.529L76.9689 166.279L75.7344 157.323L74.8674 157.082C74.8498 157.022 74.8767 156.899 74.9481 156.713C75.0936 156.378 75.327 156.24 75.6485 156.298L78.8177 156.868C78.7349 157.223 78.6539 157.436 78.5748 157.507C78.4273 157.642 78.2508 157.7 78.0454 157.682L77.6271 157.635L78.3814 164.357L81.5905 158.376L80.5168 158.098C80.4992 158.038 80.5261 157.915 80.5975 157.728C80.7429 157.394 80.9764 157.256 81.2979 157.314ZM91.1781 159.523C89.511 159.413 88.5938 160.629 88.4264 163.172C88.3424 164.448 88.4832 165.434 88.8488 166.132C89.2237 166.83 89.8114 167.21 90.6117 167.272C91.4598 167.319 92.1192 167.035 92.5899 166.42C93.0706 165.797 93.3526 164.853 93.436 163.586C93.5194 162.319 93.3687 161.341 92.9838 160.652C92.6089 159.954 92.007 159.577 91.1781 159.523ZM86.602 163.178C86.7057 161.604 87.1874 160.396 88.0472 159.555C88.9076 158.704 90.0177 158.324 91.3774 158.413C92.7371 158.503 93.747 159.004 94.4071 159.918C95.0771 160.822 95.3603 162.062 95.2567 163.636C95.1537 165.2 94.6673 166.408 93.7975 167.258C92.9377 168.099 91.828 168.475 90.4683 168.385C89.1085 168.296 88.0983 167.799 87.4376 166.895C86.7775 165.982 86.499 164.743 86.602 163.178ZM99.7338 159.086L103.003 158.873C106.263 158.661 107.995 160.133 108.201 163.291C108.303 164.855 107.957 166.08 107.163 166.964C106.37 167.848 105.214 168.34 103.696 168.438L99.6305 168.703C99.588 168.481 99.598 168.275 99.6603 168.084C99.732 167.892 99.8651 167.781 100.059 167.749L100.559 167.661L100.064 160.061L100.05 160.062L99.0664 160.041C99.0359 159.716 99.0673 159.48 99.1606 159.334C99.254 159.187 99.445 159.105 99.7338 159.086ZM103.214 167.502C104.42 167.498 105.274 167.176 105.775 166.535C106.275 165.895 106.48 164.876 106.389 163.479C106.298 162.072 105.953 161.089 105.355 160.53C104.767 159.96 103.845 159.74 102.591 159.868L101.81 159.947L102.302 167.505L103.214 167.502ZM120.825 166.043L117.627 166.75L117.602 166.641C117.492 166.14 117.633 165.826 118.025 165.701L118.416 165.586L118.429 165.583L117.444 163.722L114.984 164.266L114.842 166.348L115.967 166.185C116.007 166.234 116.029 166.358 116.035 166.557C116.03 166.922 115.868 167.139 115.549 167.21L112.801 167.818L112.777 167.708C112.666 167.207 112.807 166.894 113.2 166.769L113.7 166.63L114.462 157.628C114.845 157.505 115.306 157.404 115.842 157.323L120.269 165.148L121.244 165.018C121.283 165.067 121.306 165.191 121.312 165.39C121.306 165.755 121.144 165.972 120.825 166.043ZM115.041 163.293L116.996 162.861L115.287 159.611L115.041 163.293ZM127.366 153.859L129.833 152.864C129.833 152.864 129.847 152.898 129.875 152.968C130.067 153.444 129.98 153.776 129.613 153.964L129.299 154.121L128.614 159.348L129.75 162.166L129.763 162.161L130.716 161.867C130.995 162.408 130.914 162.768 130.473 162.946L127.551 164.125L127.509 164.021C127.317 163.545 127.405 163.212 127.772 163.024L128.138 162.846L127.012 160.055L122.817 156.765L121.955 157.022C121.908 156.981 121.865 156.862 121.826 156.666C121.771 156.306 121.896 156.065 122.199 155.943L125.341 154.675C125.46 155.02 125.504 155.243 125.475 155.346C125.422 155.538 125.304 155.682 125.12 155.776L124.715 155.969L124.689 155.98L127.714 158.428L128.166 154.608L127.122 154.938C127.075 154.897 127.033 154.778 126.994 154.582C126.939 154.222 127.063 153.981 127.366 153.859ZM144.002 156.089L141.19 157.77L141.132 157.674C140.869 157.233 140.904 156.891 141.237 156.649L141.571 156.416L141.583 156.409L140.061 154.954L137.898 156.247L138.42 158.267L139.437 157.757C139.49 157.791 139.55 157.901 139.619 158.089C139.729 158.436 139.643 158.694 139.363 158.861L136.947 160.305L136.89 160.209C136.627 159.768 136.662 159.426 136.995 159.184L137.425 158.894L135.309 150.112C135.634 149.874 136.039 149.632 136.523 149.387L143.192 155.416L144.076 154.985C144.129 155.019 144.189 155.129 144.258 155.317C144.368 155.664 144.282 155.922 144.002 156.089ZM137.645 155.305L139.364 154.278L136.718 151.733L137.645 155.305Z" fill="#BEA05A"/>
<path d="M309 131.852C309 132.518 309 133.185 309 133.852C307.583 133.835 306.167 133.818 304.75 133.802C279.25 133.502 253.75 133.202 228.25 132.902C226.833 132.885 225.417 132.868 224 132.852C225.417 132.835 226.833 132.818 228.25 132.802C253.75 132.502 279.25 132.202 304.75 131.902C306.167 131.885 307.583 131.868 309 131.852Z" fill="#D6AD3F"/>
<path d="M471 132.352C471 133.018 471 133.685 471 134.352C472.417 134.335 473.833 134.318 475.25 134.302C500.75 134.002 526.25 133.702 551.75 133.402C553.167 133.385 554.583 133.368 556 133.352C554.583 133.335 553.167 133.318 551.75 133.302C526.25 133.002 500.75 132.702 475.25 132.402C473.833 132.385 472.417 132.368 471 132.352Z" fill="#D6AD3F"/>
<path d="M328.286 125.152H331.766C331.766 125.152 331.766 125.205 331.766 125.312C331.766 126.045 331.472 126.438 330.886 126.492L330.306 126.532V138.592C329.906 138.778 329.392 138.872 328.766 138.872L321.986 128.732V137.432L323.426 137.552C323.506 138.418 323.206 138.852 322.526 138.852H319.026V138.692C319.026 137.958 319.319 137.565 319.906 137.512L320.486 137.472V126.572L319.046 126.452C319.006 126.372 319.012 126.192 319.066 125.912C319.186 125.405 319.479 125.152 319.946 125.152H322.566L328.806 134.452V126.572L327.386 126.452C327.306 125.585 327.606 125.152 328.286 125.152ZM349.313 138.852H344.633V138.692C344.633 137.958 344.926 137.565 345.513 137.512L346.093 137.472H346.113L345.313 134.572H341.713L340.873 137.432L342.493 137.552C342.533 137.632 342.526 137.812 342.473 138.092C342.353 138.598 342.059 138.852 341.593 138.852H337.573V138.692C337.573 137.958 337.866 137.565 338.453 137.512L339.193 137.472L343.033 125.152C343.606 125.098 344.279 125.098 345.053 125.152L348.813 137.432L350.213 137.552C350.253 137.632 350.246 137.812 350.193 138.092C350.073 138.598 349.779 138.852 349.313 138.852ZM342.093 133.232H344.953L343.573 128.172L342.093 133.232ZM364.836 125.152H368.616C368.616 125.152 368.616 125.205 368.616 125.312C368.616 126.045 368.322 126.438 367.736 126.492L367.256 126.532L363.036 138.852H361.016L357.016 126.572L355.736 126.452C355.696 126.372 355.702 126.192 355.756 125.912C355.876 125.405 356.169 125.152 356.636 125.152H361.236C361.209 125.672 361.149 125.992 361.056 126.112C360.882 126.338 360.649 126.465 360.356 126.492L359.756 126.532L362.516 135.792L365.516 126.572L363.936 126.452C363.896 126.372 363.902 126.192 363.956 125.912C364.076 125.405 364.369 125.152 364.836 125.152ZM380.725 126.452C378.339 126.452 377.145 128.272 377.145 131.912C377.145 133.738 377.439 135.132 378.025 136.092C378.625 137.052 379.499 137.538 380.645 137.552C381.859 137.538 382.772 137.072 383.385 136.152C384.012 135.218 384.325 133.845 384.325 132.032C384.325 130.218 384.019 128.838 383.405 127.892C382.805 126.932 381.912 126.452 380.725 126.452ZM374.545 132.092C374.545 129.838 375.119 128.072 376.265 126.792C377.412 125.498 378.959 124.852 380.905 124.852C382.852 124.852 384.339 125.472 385.365 126.712C386.405 127.938 386.925 129.678 386.925 131.932C386.925 134.172 386.345 135.938 385.185 137.232C384.039 138.512 382.492 139.152 380.545 139.152C378.599 139.152 377.112 138.538 376.085 137.312C375.059 136.072 374.545 134.332 374.545 132.092ZM394.694 125.152H399.374C404.041 125.152 406.374 127.412 406.374 131.932C406.374 134.172 405.768 135.885 404.554 137.072C403.341 138.258 401.648 138.852 399.474 138.852H393.654C393.614 138.532 393.648 138.238 393.754 137.972C393.874 137.705 394.074 137.558 394.354 137.532L395.074 137.452V126.572H395.054L393.654 126.452C393.641 125.985 393.708 125.652 393.854 125.452C394.001 125.252 394.281 125.152 394.694 125.152ZM398.874 137.472C400.594 137.578 401.841 137.198 402.614 136.332C403.388 135.465 403.774 134.032 403.774 132.032C403.774 130.018 403.374 128.585 402.574 127.732C401.788 126.865 400.494 126.465 398.694 126.532L397.574 126.572V137.392L398.874 137.472ZM424.273 138.852H419.593V138.692C419.593 137.958 419.886 137.565 420.473 137.512L421.053 137.472H421.073L420.273 134.572H416.673L415.833 137.432L417.453 137.552C417.493 137.632 417.486 137.812 417.433 138.092C417.313 138.598 417.019 138.852 416.553 138.852H412.533V138.692C412.533 137.958 412.826 137.565 413.413 137.512L414.153 137.472L417.993 125.152C418.566 125.098 419.239 125.098 420.013 125.152L423.773 137.432L425.173 137.552C425.213 137.632 425.206 137.812 425.153 138.092C425.033 138.598 424.739 138.852 424.273 138.852ZM417.053 133.232H419.913L418.533 128.172L417.053 133.232ZM439.556 125.152H443.356C443.356 125.152 443.356 125.205 443.356 125.312C443.356 126.045 443.062 126.438 442.476 126.492L441.976 126.532L438.276 133.092V137.432H438.296L439.716 137.552C439.796 138.418 439.496 138.852 438.816 138.852H434.316V138.692C434.316 137.958 434.609 137.565 435.196 137.512L435.776 137.472V133.172L431.976 126.572L430.696 126.452C430.656 126.372 430.662 126.192 430.716 125.912C430.836 125.405 431.129 125.152 431.596 125.152H436.436C436.409 125.672 436.349 125.992 436.256 126.112C436.082 126.338 435.849 126.465 435.556 126.492L434.916 126.532H434.876L437.576 131.392L440.216 126.572L438.656 126.452C438.616 126.372 438.622 126.192 438.676 125.912C438.796 125.405 439.089 125.152 439.556 125.152ZM460.571 138.852H455.891V138.692C455.891 137.958 456.184 137.565 456.771 137.512L457.351 137.472H457.371L456.571 134.572H452.971L452.131 137.432L453.751 137.552C453.791 137.632 453.784 137.812 453.731 138.092C453.611 138.598 453.318 138.852 452.851 138.852H448.831V138.692C448.831 137.958 449.124 137.565 449.711 137.512L450.451 137.472L454.291 125.152C454.864 125.098 455.538 125.098 456.311 125.152L460.071 137.432L461.471 137.552C461.511 137.632 461.504 137.812 461.451 138.092C461.331 138.598 461.038 138.852 460.571 138.852ZM453.351 133.232H456.211L454.831 128.172L453.351 133.232Z" fill="#BEA05A"/>
<path d="M227.375 104.582C227.375 104.582 227.107 103.9 226.572 102.538C226.085 101.126 225.428 99.3012 224.601 97.0626C223.822 94.7752 222.922 92.2932 221.9 89.6166C220.927 86.8912 219.929 84.1902 218.907 81.5136C217.934 78.7882 217.033 76.3062 216.206 74.0676C215.427 71.8289 214.77 70.0282 214.235 68.6656C213.748 67.3029 213.505 66.6216 213.505 66.6216C212.726 64.6262 211.948 63.1906 211.169 62.3146C210.39 61.4386 209.222 60.8546 207.665 60.5626C206.984 60.4166 206.497 60.2949 206.205 60.1976C205.962 60.1002 205.84 59.6622 205.84 58.8836C205.84 58.0562 206.132 57.6182 206.716 57.5696C207.3 57.4722 207.981 57.4236 208.76 57.4236C212.021 57.4722 214.551 58.0806 216.352 59.2486C218.153 60.3679 219.588 62.3146 220.659 65.0886L231.244 93.5586H231.463L241.537 64.2856C242.072 62.7282 242.097 61.7549 241.61 61.3656C241.123 60.9276 240.028 60.7086 238.325 60.7086C237.838 60.7086 237.425 60.6599 237.084 60.5626C236.743 60.4652 236.549 60.0029 236.5 59.1756C236.5 58.7862 236.597 58.4212 236.792 58.0806C236.987 57.7399 237.303 57.5696 237.741 57.5696C239.298 57.6182 240.637 57.6669 241.756 57.7156C242.924 57.7642 244.238 57.7886 245.698 57.7886C246.671 57.7886 247.474 57.7886 248.107 57.7886C248.74 57.7399 249.372 57.7156 250.005 57.7156C250.686 57.6669 251.538 57.6182 252.56 57.5696C253.047 57.5696 253.387 57.7399 253.582 58.0806C253.777 58.4212 253.874 58.7862 253.874 59.1756C253.825 60.0029 253.631 60.4652 253.29 60.5626C252.998 60.6599 252.584 60.7086 252.049 60.7086C250.2 60.7086 248.74 61.0492 247.669 61.7306C246.598 62.4119 245.674 63.7259 244.895 65.6726C244.895 65.6239 244.627 66.3052 244.092 67.7166C243.605 69.0792 242.948 70.9286 242.121 73.2646C241.294 75.5519 240.369 78.0826 239.347 80.8566C238.374 83.6306 237.376 86.4046 236.354 89.1786C235.332 91.9526 234.407 94.5076 233.58 96.8436C232.753 99.1796 232.071 101.053 231.536 102.465C231.049 103.876 230.806 104.582 230.806 104.582H227.375ZM273.153 104.071C272.715 104.071 272.399 103.9 272.204 103.56C272.009 103.219 271.912 102.854 271.912 102.465C271.961 101.637 272.155 101.175 272.496 101.078C272.837 100.98 273.25 100.932 273.737 100.932C275.294 100.932 276.389 100.664 277.022 100.129C277.655 99.5446 278.044 98.8389 278.19 98.0116C278.385 97.1356 278.482 96.2352 278.482 95.3106V66.3296C278.482 65.4049 278.385 64.5289 278.19 63.7016C278.044 62.8256 277.655 62.1199 277.022 61.5846C276.389 61.0006 275.294 60.7086 273.737 60.7086C273.25 60.7086 272.837 60.6599 272.496 60.5626C272.155 60.4652 271.961 60.0029 271.912 59.1756C271.912 58.7862 272.009 58.4212 272.204 58.0806C272.399 57.7399 272.715 57.5696 273.153 57.5696C274.759 57.6182 276.243 57.6669 277.606 57.7156C278.969 57.7642 280.38 57.7886 281.84 57.7886H304.762C305.297 57.7886 305.735 57.9102 306.076 58.1536C306.465 58.3969 306.66 58.8592 306.66 59.5406L306.879 69.7606C306.879 70.2472 306.636 70.6122 306.149 70.8556C305.711 71.0989 305.297 71.2206 304.908 71.2206C304.373 71.2206 303.886 71.1232 303.448 70.9286C303.01 70.6852 302.742 70.3446 302.645 69.9066C302.304 67.7166 301.891 65.9646 301.404 64.6506C300.966 63.2879 300.285 62.3146 299.36 61.7306C298.484 61.0979 297.194 60.7572 295.491 60.7086H285.709V79.2506H298.922C299.311 79.2992 299.579 79.4939 299.725 79.8346C299.92 80.1752 300.017 80.5402 300.017 80.9296C300.017 81.2702 299.92 81.6109 299.725 81.9516C299.579 82.2436 299.311 82.3896 298.922 82.3896H285.709V96.1866C285.758 96.8192 285.855 97.5249 286.001 98.3036C286.147 99.0336 286.561 99.6662 287.242 100.202C287.972 100.737 289.164 100.98 290.819 100.932H297.535C299.238 100.883 300.528 100.615 301.404 100.129C302.329 99.5932 303.059 98.7172 303.594 97.5006C304.129 96.2839 304.713 94.6049 305.346 92.4636C305.541 91.9769 305.857 91.6606 306.295 91.5146C306.782 91.3686 307.293 91.3442 307.828 91.4416C308.217 91.4902 308.607 91.6606 308.996 91.9526C309.434 92.2446 309.629 92.6339 309.58 93.1206L308.12 102.319C307.974 103 307.731 103.438 307.39 103.633C307.098 103.779 306.636 103.852 306.003 103.852H281.913C280.453 103.852 279.017 103.852 277.606 103.852C276.243 103.9 274.759 103.973 273.153 104.071ZM314.964 104.071C314.623 104.071 314.331 103.925 314.088 103.633C313.893 103.292 313.796 102.951 313.796 102.611C313.844 101.881 314.015 101.491 314.307 101.443C314.647 101.345 315.037 101.297 315.475 101.297C316.837 101.297 317.762 101.078 318.249 100.64C318.784 100.153 319.076 99.5202 319.125 98.7416C319.222 97.9629 319.271 97.1599 319.271 96.3326V60.7086C319.271 59.8326 319.222 59.0296 319.125 58.2996C319.076 57.5209 318.808 56.9126 318.322 56.4746C317.835 55.9879 316.91 55.7446 315.548 55.7446C315.11 55.7446 314.696 55.6959 314.307 55.5986C313.966 55.4526 313.796 55.0146 313.796 54.2846C313.796 53.5546 314.185 53.1166 314.964 52.9706C317.202 52.6299 318.906 52.2892 320.074 51.9486C321.29 51.6079 322.215 51.3159 322.848 51.0726C323.48 50.8292 324.04 50.6832 324.527 50.6346C324.916 50.5859 325.232 50.6589 325.476 50.8536C325.768 51.0482 325.914 51.4376 325.914 52.0216V96.3326C325.914 97.1599 325.938 97.9629 325.987 98.7416C326.084 99.5202 326.376 100.153 326.863 100.64C327.398 101.078 328.347 101.297 329.71 101.297C330.148 101.297 330.513 101.345 330.805 101.443C331.145 101.491 331.34 101.881 331.389 102.611C331.389 102.951 331.291 103.292 331.097 103.633C330.902 103.925 330.61 104.071 330.221 104.071C328.809 103.973 327.495 103.9 326.279 103.852C325.111 103.852 323.87 103.852 322.556 103.852C321.242 103.852 320.001 103.852 318.833 103.852C317.665 103.9 316.375 103.973 314.964 104.071ZM352.58 104.728C348.833 104.728 345.67 103.925 343.09 102.319C340.56 100.713 338.662 98.5712 337.396 95.8946C336.131 93.2179 335.498 90.2979 335.498 87.1346C335.498 84.9932 335.863 82.9249 336.593 80.9296C337.372 78.8856 338.467 77.0362 339.878 75.3816C341.29 73.6782 342.993 72.3399 344.988 71.3666C346.984 70.3932 349.247 69.9066 351.777 69.9066C356.255 69.9066 359.613 71.0746 361.851 73.4106C364.139 75.6979 365.453 78.6179 365.793 82.1706C365.793 83.8739 365.307 84.9932 364.333 85.5286C363.409 86.0639 362.192 86.3316 360.683 86.3316H342.944C342.944 89.1542 343.334 91.6849 344.112 93.9236C344.891 96.1136 346.108 97.8656 347.762 99.1796C349.466 100.445 351.704 101.078 354.478 101.078C356.522 101.078 358.274 100.64 359.734 99.7636C361.194 98.8876 362.606 97.3546 363.968 95.1646C364.358 94.6779 364.893 94.6536 365.574 95.0916C365.964 95.2862 366.207 95.6026 366.304 96.0406C366.402 96.4299 366.353 96.7706 366.158 97.0626C364.65 99.4472 362.752 101.321 360.464 102.684C358.177 104.046 355.549 104.728 352.58 104.728ZM342.944 83.5576H354.843C356.011 83.5576 356.936 83.3386 357.617 82.9006C358.347 82.4139 358.737 81.6109 358.785 80.4916C358.785 78.3989 358.201 76.5496 357.033 74.9436C355.914 73.2889 354.162 72.4616 351.777 72.4616C349.344 72.4616 347.3 73.4349 345.645 75.3816C344.039 77.3282 343.139 80.0536 342.944 83.5576ZM385.617 104.582C384.401 101.905 383.184 98.9849 381.967 95.8216C380.751 92.6582 379.558 89.5679 378.39 86.5506C377.222 83.5332 376.103 80.9052 375.032 78.6666C374.254 76.8659 373.499 75.6006 372.769 74.8706C372.039 74.0919 370.944 73.6052 369.484 73.4106C368.852 73.3132 368.414 73.2159 368.17 73.1186C367.976 73.0212 367.854 72.6562 367.805 72.0236C367.757 71.1962 367.976 70.7582 368.462 70.7096C368.998 70.6122 369.63 70.5392 370.36 70.4906C373.378 70.3446 375.738 70.7826 377.441 71.8046C379.145 72.8266 380.532 74.5542 381.602 76.9876C382.284 78.4962 383.038 80.3699 383.865 82.6086C384.741 84.8472 385.642 87.1102 386.566 89.3976C387.491 91.6849 388.391 93.7532 389.267 95.6026H389.486L396.713 76.4766C397.2 75.0652 397.224 74.1892 396.786 73.8486C396.348 73.5079 395.399 73.3376 393.939 73.3376C393.501 73.3376 393.136 73.3132 392.844 73.2646C392.552 73.1672 392.382 72.7536 392.333 72.0236C392.333 71.7316 392.406 71.4152 392.552 71.0746C392.747 70.7339 393.015 70.5636 393.355 70.5636C394.767 70.6122 395.983 70.6609 397.005 70.7096C398.027 70.7582 399.171 70.7826 400.436 70.7826C401.312 70.7826 402.018 70.7826 402.553 70.7826C403.089 70.7339 403.648 70.7096 404.232 70.7096C404.816 70.6609 405.571 70.6122 406.495 70.5636C406.885 70.5636 407.152 70.7339 407.298 71.0746C407.493 71.4152 407.59 71.7316 407.59 72.0236C407.542 72.7536 407.347 73.1672 407.006 73.2646C406.714 73.3132 406.374 73.3376 405.984 73.3376C404.378 73.3376 403.089 73.6296 402.115 74.2136C401.191 74.7976 400.388 75.9412 399.706 77.6446C399.706 77.6446 399.439 78.3016 398.903 79.6156C398.417 80.8809 397.76 82.5356 396.932 84.5796C396.105 86.6236 395.229 88.7892 394.304 91.0766C393.38 93.3639 392.479 95.5296 391.603 97.5736C390.776 99.6176 390.095 101.297 389.559 102.611C389.024 103.925 388.732 104.582 388.683 104.582H385.617ZM417.912 104.728C414.943 104.728 412.559 103.876 410.758 102.173C409.006 100.469 408.13 98.4252 408.13 96.0406C408.13 93.5586 408.763 91.6119 410.028 90.2006C411.342 88.7892 413.045 87.7429 415.138 87.0616C417.279 86.3802 419.591 85.9179 422.073 85.6746C424.604 85.4312 427.061 85.2366 429.446 85.0906V79.3236C429.446 77.0362 428.862 75.2599 427.694 73.9946C426.575 72.6806 424.652 72.0236 421.927 72.0236C420.564 72.0236 419.275 72.4616 418.058 73.3376C416.89 74.2136 416.306 75.4789 416.306 77.1336C416.306 77.9122 416.501 78.5692 416.89 79.1046C417.279 79.6399 417.669 80.0536 418.058 80.3456C418.447 80.6376 418.642 80.8322 418.642 80.9296C418.642 81.1242 418.35 81.4892 417.766 82.0246C417.231 82.5112 416.476 82.7546 415.503 82.7546C413.994 82.7546 412.826 82.1949 411.999 81.0756C411.172 79.9562 410.758 78.7152 410.758 77.3526C410.758 75.5032 411.318 74.0432 412.437 72.9726C413.605 71.9019 415.089 71.1232 416.89 70.6366C418.691 70.1499 420.516 69.9066 422.365 69.9066C424.555 69.9066 426.672 70.1742 428.716 70.7096C430.809 71.2449 432.512 72.2669 433.826 73.7756C435.189 75.2842 435.87 77.5472 435.87 80.5646V97.5736C435.919 98.0602 436.04 98.6442 436.235 99.3256C436.43 100.007 436.795 100.615 437.33 101.151C437.914 101.637 438.693 101.881 439.666 101.881C440.007 101.881 440.274 101.954 440.469 102.1C440.664 102.197 440.761 102.513 440.761 103.049C440.761 103.487 440.518 103.827 440.031 104.071C439.544 104.314 438.985 104.484 438.352 104.582C437.719 104.679 437.184 104.728 436.746 104.728C434.945 104.728 433.339 104.217 431.928 103.195C430.517 102.124 429.689 100.664 429.446 98.8146C428.375 100.761 426.769 102.246 424.628 103.268C422.535 104.241 420.297 104.728 417.912 104.728ZM420.248 100.786C421.903 100.786 423.411 100.372 424.774 99.5446C426.185 98.7172 427.305 97.5979 428.132 96.1866C429.008 94.7266 429.446 93.1206 429.446 91.3686V87.2076C424.433 87.5482 420.856 88.3512 418.715 89.6166C416.574 90.8819 415.503 92.9502 415.503 95.8216C415.503 99.1309 417.085 100.786 420.248 100.786ZM457.488 105.093C456.028 105.093 454.641 104.728 453.327 103.998C452.013 103.268 450.918 102.148 450.042 100.64C449.215 99.1309 448.801 97.2329 448.801 94.9456V73.4836L444.567 73.6296C444.227 73.6296 443.959 73.5079 443.764 73.2646C443.618 72.9726 443.545 72.6562 443.545 72.3156C443.545 71.3422 443.886 70.7826 444.567 70.6366C446.368 70.2959 447.731 69.7362 448.655 68.9576C449.58 68.1302 450.286 67.1569 450.772 66.0376C451.308 64.9182 451.794 63.7016 452.232 62.3876C452.378 61.9982 452.597 61.7549 452.889 61.6576C453.181 61.5116 453.498 61.4386 453.838 61.4386C454.13 61.4386 454.447 61.5116 454.787 61.6576C455.177 61.8036 455.371 62.0712 455.371 62.4606L454.86 70.7826L463.401 70.2716C463.839 70.2229 464.131 70.3446 464.277 70.6366C464.423 70.9286 464.496 71.2692 464.496 71.6586C464.496 72.1452 464.399 72.6319 464.204 73.1186C464.058 73.6052 463.864 73.8486 463.62 73.8486L455.444 73.6296V95.8216C455.444 97.2329 455.736 98.5226 456.32 99.6906C456.953 100.859 458.072 101.443 459.678 101.443C460.214 101.443 460.822 101.394 461.503 101.297C462.185 101.199 462.915 100.98 463.693 100.64C463.888 100.542 464.083 100.469 464.277 100.421C464.472 100.323 464.667 100.275 464.861 100.275C465.251 100.275 465.543 100.445 465.737 100.786C465.932 101.078 466.102 101.394 466.248 101.735C466.394 102.173 466.273 102.513 465.883 102.757C464.375 103.73 462.988 104.363 461.722 104.655C460.457 104.947 459.046 105.093 457.488 105.093ZM489.455 104.728C485.708 104.728 482.545 103.925 479.965 102.319C477.435 100.713 475.537 98.5712 474.271 95.8946C473.006 93.2179 472.373 90.2979 472.373 87.1346C472.373 84.9932 472.738 82.9249 473.468 80.9296C474.247 78.8856 475.342 77.0362 476.753 75.3816C478.165 73.6782 479.868 72.3399 481.863 71.3666C483.859 70.3932 486.122 69.9066 488.652 69.9066C493.13 69.9066 496.488 71.0746 498.726 73.4106C501.014 75.6979 502.328 78.6179 502.668 82.1706C502.668 83.8739 502.182 84.9932 501.208 85.5286C500.284 86.0639 499.067 86.3316 497.558 86.3316H479.819C479.819 89.1542 480.209 91.6849 480.987 93.9236C481.766 96.1136 482.983 97.8656 484.637 99.1796C486.341 100.445 488.579 101.078 491.353 101.078C493.397 101.078 495.149 100.64 496.609 99.7636C498.069 98.8876 499.481 97.3546 500.843 95.1646C501.233 94.6779 501.768 94.6536 502.449 95.0916C502.839 95.2862 503.082 95.6026 503.179 96.0406C503.277 96.4299 503.228 96.7706 503.033 97.0626C501.525 99.4472 499.627 101.321 497.339 102.684C495.052 104.046 492.424 104.728 489.455 104.728ZM479.819 83.5576H491.718C492.886 83.5576 493.811 83.3386 494.492 82.9006C495.222 82.4139 495.612 81.6109 495.66 80.4916C495.66 78.3989 495.076 76.5496 493.908 74.9436C492.789 73.2889 491.037 72.4616 488.652 72.4616C486.219 72.4616 484.175 73.4349 482.52 75.3816C480.914 77.3282 480.014 80.0536 479.819 83.5576ZM548.484 105.312C544.591 105.312 541.33 104.63 538.702 103.268C536.074 101.905 534.103 100.153 532.789 98.0116C531.475 95.8702 530.818 93.6072 530.818 91.2226V66.3296C530.818 65.4049 530.721 64.5289 530.526 63.7016C530.38 62.8256 529.991 62.1199 529.358 61.5846C528.725 61.0006 527.63 60.7086 526.073 60.7086C525.586 60.7086 525.173 60.6599 524.832 60.5626C524.491 60.4652 524.297 60.0029 524.248 59.1756C524.248 58.7862 524.345 58.4212 524.54 58.0806C524.735 57.7399 525.075 57.5696 525.562 57.5696C527.119 57.6182 528.579 57.6669 529.942 57.7156C531.305 57.7642 532.716 57.7886 534.176 57.7886C537.145 57.7886 540.186 57.7156 543.301 57.5696C543.788 57.5696 544.128 57.7399 544.323 58.0806C544.518 58.4212 544.615 58.7862 544.615 59.1756C544.566 59.9056 544.42 60.3436 544.177 60.4896C543.934 60.6356 543.593 60.7086 543.155 60.7086C541.5 60.7086 540.308 60.9762 539.578 61.5116C538.897 61.9982 538.483 62.6796 538.337 63.5556C538.191 64.3829 538.094 65.3076 538.045 66.3296V89.1056C538.045 90.3709 538.167 91.7092 538.41 93.1206C538.702 94.4832 539.237 95.7729 540.016 96.9896C540.795 98.1576 541.938 99.1309 543.447 99.9096C545.004 100.64 547.073 101.005 549.652 101.005C552.961 101.005 555.492 100.469 557.244 99.3986C559.045 98.2792 560.286 96.8922 560.967 95.2376C561.648 93.5829 561.989 91.8796 561.989 90.1276V70.9286C561.989 67.7166 561.867 65.4049 561.624 63.9936C561.381 62.5336 560.845 61.6332 560.018 61.2926C559.239 60.9032 558.023 60.7086 556.368 60.7086C555.881 60.7086 555.468 60.6599 555.127 60.5626C554.786 60.4652 554.592 60.0029 554.543 59.1756C554.543 58.7862 554.64 58.4212 554.835 58.0806C555.03 57.7399 555.37 57.5696 555.857 57.5696C557.414 57.6182 558.801 57.6669 560.018 57.7156C561.235 57.7642 562.573 57.7886 564.033 57.7886C565.493 57.7886 566.831 57.7642 568.048 57.7156C569.265 57.6669 570.652 57.6182 572.209 57.5696C572.696 57.5696 573.036 57.7399 573.231 58.0806C573.426 58.4212 573.523 58.7862 573.523 59.1756C573.474 59.9056 573.328 60.3436 573.085 60.4896C572.842 60.6356 572.501 60.7086 572.063 60.7086C570.749 60.7086 569.678 60.7816 568.851 60.9276C568.072 61.0736 567.464 61.4629 567.026 62.0956C566.637 62.6796 566.369 63.6529 566.223 65.0156C566.126 66.3296 566.077 68.1546 566.077 70.4906V90.8576C566.077 93.4369 565.517 95.6512 564.398 97.5006C563.327 99.3499 561.892 100.859 560.091 102.027C558.339 103.146 556.441 103.973 554.397 104.509C552.353 105.044 550.382 105.312 548.484 105.312Z" fill="#022850"/>
<path d="M51.4452 47.0516C51.4452 47.0516 51.3719 46.8649 51.2252 46.4916C51.0919 46.1049 50.9119 45.6049 50.6852 44.9916C50.4719 44.3649 50.2252 43.6849 49.9452 42.9516C49.6786 42.2049 49.4052 41.4649 49.1252 40.7316C48.8586 39.9849 48.6119 39.3049 48.3852 38.6916C48.1719 38.0782 47.9919 37.5849 47.8452 37.2116C47.7119 36.8382 47.6452 36.6516 47.6452 36.6516C47.4319 36.1049 47.2186 35.7116 47.0052 35.4716C46.7919 35.2316 46.4719 35.0716 46.0452 34.9916C45.8586 34.9516 45.7252 34.9182 45.6452 34.8916C45.5786 34.8649 45.5452 34.7449 45.5452 34.5316C45.5452 34.3049 45.6252 34.1849 45.7852 34.1716C45.9452 34.1449 46.1319 34.1316 46.3452 34.1316C47.2386 34.1449 47.9319 34.3116 48.4252 34.6316C48.9186 34.9382 49.3119 35.4716 49.6052 36.2316L52.5052 44.0316H52.5652L55.3252 36.0116C55.4719 35.5849 55.4786 35.3182 55.3452 35.2116C55.2119 35.0916 54.9119 35.0316 54.4452 35.0316C54.3119 35.0316 54.1986 35.0182 54.1052 34.9916C54.0119 34.9649 53.9586 34.8382 53.9452 34.6116C53.9452 34.5049 53.9719 34.4049 54.0252 34.3116C54.0786 34.2182 54.1652 34.1716 54.2852 34.1716C54.7119 34.1849 55.0786 34.1982 55.3852 34.2116C55.7052 34.2249 56.0652 34.2316 56.4652 34.2316C56.7319 34.2316 56.9519 34.2316 57.1252 34.2316C57.2986 34.2182 57.4719 34.2116 57.6452 34.2116C57.8319 34.1982 58.0652 34.1849 58.3452 34.1716C58.4786 34.1716 58.5719 34.2182 58.6252 34.3116C58.6786 34.4049 58.7052 34.5049 58.7052 34.6116C58.6919 34.8382 58.6386 34.9649 58.5452 34.9916C58.4652 35.0182 58.3519 35.0316 58.2052 35.0316C57.6986 35.0316 57.2986 35.1249 57.0052 35.3116C56.7119 35.4982 56.4586 35.8582 56.2452 36.3916C56.2452 36.3782 56.1719 36.5649 56.0252 36.9516C55.8919 37.3249 55.7119 37.8316 55.4852 38.4716C55.2586 39.0982 55.0052 39.7916 54.7252 40.5516C54.4586 41.3116 54.1852 42.0716 53.9052 42.8316C53.6252 43.5916 53.3719 44.2916 53.1452 44.9316C52.9186 45.5716 52.7319 46.0849 52.5852 46.4716C52.4519 46.8582 52.3852 47.0516 52.3852 47.0516H51.4452ZM63.9871 46.9116C63.8671 46.9116 63.7804 46.8649 63.7271 46.7716C63.6738 46.6782 63.6471 46.5782 63.6471 46.4716C63.6604 46.2449 63.7138 46.1182 63.8071 46.0916C63.9004 46.0649 64.0138 46.0516 64.1471 46.0516C64.5738 46.0516 64.8738 45.9782 65.0471 45.8316C65.2204 45.6716 65.3271 45.4782 65.3671 45.2516C65.4204 45.0116 65.4471 44.7649 65.4471 44.5116V36.5716C65.4471 36.3182 65.4204 36.0782 65.3671 35.8516C65.3271 35.6116 65.2204 35.4182 65.0471 35.2716C64.8738 35.1116 64.5738 35.0316 64.1471 35.0316C64.0138 35.0316 63.9004 35.0182 63.8071 34.9916C63.7138 34.9649 63.6604 34.8382 63.6471 34.6116C63.6471 34.5049 63.6738 34.4049 63.7271 34.3116C63.7804 34.2182 63.8671 34.1716 63.9871 34.1716C64.4271 34.1849 64.8338 34.1982 65.2071 34.2116C65.5804 34.2249 65.9671 34.2316 66.3671 34.2316H72.6471C72.7938 34.2316 72.9138 34.2649 73.0071 34.3316C73.1138 34.3982 73.1671 34.5249 73.1671 34.7116L73.2271 37.5116C73.2271 37.6449 73.1604 37.7449 73.0271 37.8116C72.9071 37.8782 72.7938 37.9116 72.6871 37.9116C72.5404 37.9116 72.4071 37.8849 72.2871 37.8316C72.1671 37.7649 72.0938 37.6716 72.0671 37.5516C71.9738 36.9516 71.8604 36.4716 71.7271 36.1116C71.6071 35.7382 71.4204 35.4716 71.1671 35.3116C70.9271 35.1382 70.5738 35.0449 70.1071 35.0316H67.4271V40.1116H71.0471C71.1538 40.1249 71.2271 40.1782 71.2671 40.2716C71.3204 40.3649 71.3471 40.4649 71.3471 40.5716C71.3471 40.6649 71.3204 40.7582 71.2671 40.8516C71.2271 40.9316 71.1538 40.9716 71.0471 40.9716H67.4271V44.7516C67.4404 44.9249 67.4671 45.1182 67.5071 45.3316C67.5471 45.5316 67.6604 45.7049 67.8471 45.8516C68.0471 45.9982 68.3738 46.0649 68.8271 46.0516H70.6671C71.1338 46.0382 71.4871 45.9649 71.7271 45.8316C71.9804 45.6849 72.1804 45.4449 72.3271 45.1116C72.4738 44.7782 72.6338 44.3182 72.8071 43.7316C72.8604 43.5982 72.9471 43.5116 73.0671 43.4716C73.2004 43.4316 73.3404 43.4249 73.4871 43.4516C73.5938 43.4649 73.7004 43.5116 73.8071 43.5916C73.9271 43.6716 73.9804 43.7782 73.9671 43.9116L73.5671 46.4316C73.5271 46.6182 73.4604 46.7382 73.3671 46.7916C73.2871 46.8316 73.1604 46.8516 72.9871 46.8516H66.3871C65.9871 46.8516 65.5938 46.8516 65.2071 46.8516C64.8338 46.8649 64.4271 46.8849 63.9871 46.9116ZM75.4421 46.9116C75.3488 46.9116 75.2688 46.8716 75.2021 46.7916C75.1488 46.6982 75.1221 46.6049 75.1221 46.5116C75.1354 46.3116 75.1821 46.2049 75.2621 46.1916C75.3554 46.1649 75.4621 46.1516 75.5821 46.1516C75.9554 46.1516 76.2088 46.0916 76.3421 45.9716C76.4888 45.8382 76.5688 45.6649 76.5821 45.4516C76.6088 45.2382 76.6221 45.0182 76.6221 44.7916V35.0316C76.6221 34.7916 76.6088 34.5716 76.5821 34.3716C76.5688 34.1582 76.4954 33.9916 76.3621 33.8716C76.2288 33.7382 75.9754 33.6716 75.6021 33.6716C75.4821 33.6716 75.3688 33.6582 75.2621 33.6316C75.1688 33.5916 75.1221 33.4716 75.1221 33.2716C75.1221 33.0716 75.2288 32.9516 75.4421 32.9116C76.0554 32.8182 76.5221 32.7249 76.8421 32.6316C77.1754 32.5382 77.4288 32.4582 77.6021 32.3916C77.7754 32.3249 77.9288 32.2849 78.0621 32.2716C78.1688 32.2582 78.2554 32.2782 78.3221 32.3316C78.4021 32.3849 78.4421 32.4916 78.4421 32.6516V44.7916C78.4421 45.0182 78.4488 45.2382 78.4621 45.4516C78.4888 45.6649 78.5688 45.8382 78.7021 45.9716C78.8488 46.0916 79.1088 46.1516 79.4821 46.1516C79.6021 46.1516 79.7021 46.1649 79.7821 46.1916C79.8754 46.2049 79.9288 46.3116 79.9421 46.5116C79.9421 46.6049 79.9154 46.6982 79.8621 46.7916C79.8088 46.8716 79.7288 46.9116 79.6221 46.9116C79.2354 46.8849 78.8754 46.8649 78.5421 46.8516C78.2221 46.8516 77.8821 46.8516 77.5221 46.8516C77.1621 46.8516 76.8221 46.8516 76.5021 46.8516C76.1821 46.8649 75.8288 46.8849 75.4421 46.9116ZM85.748 47.0916C84.7214 47.0916 83.8547 46.8716 83.148 46.4316C82.4547 45.9916 81.9347 45.4049 81.588 44.6716C81.2414 43.9382 81.068 43.1382 81.068 42.2716C81.068 41.6849 81.168 41.1182 81.368 40.5716C81.5814 40.0116 81.8814 39.5049 82.268 39.0516C82.6547 38.5849 83.1214 38.2182 83.668 37.9516C84.2147 37.6849 84.8347 37.5516 85.528 37.5516C86.7547 37.5516 87.6747 37.8716 88.288 38.5116C88.9147 39.1382 89.2747 39.9382 89.368 40.9116C89.368 41.3782 89.2347 41.6849 88.968 41.8316C88.7147 41.9782 88.3814 42.0516 87.968 42.0516H83.108C83.108 42.8249 83.2147 43.5182 83.428 44.1316C83.6414 44.7316 83.9747 45.2116 84.428 45.5716C84.8947 45.9182 85.508 46.0916 86.268 46.0916C86.828 46.0916 87.308 45.9716 87.708 45.7316C88.108 45.4916 88.4947 45.0716 88.868 44.4716C88.9747 44.3382 89.1214 44.3316 89.308 44.4516C89.4147 44.5049 89.4814 44.5916 89.508 44.7116C89.5347 44.8182 89.5214 44.9116 89.468 44.9916C89.0547 45.6449 88.5347 46.1582 87.908 46.5316C87.2814 46.9049 86.5614 47.0916 85.748 47.0916ZM83.108 41.2916H86.368C86.688 41.2916 86.9414 41.2316 87.128 41.1116C87.328 40.9782 87.4347 40.7582 87.448 40.4516C87.448 39.8782 87.288 39.3716 86.968 38.9316C86.6614 38.4782 86.1814 38.2516 85.528 38.2516C84.8614 38.2516 84.3014 38.5182 83.848 39.0516C83.408 39.5849 83.1614 40.3316 83.108 41.2916ZM94.7993 47.0516C94.466 46.3182 94.1326 45.5182 93.7993 44.6516C93.466 43.7849 93.1393 42.9382 92.8193 42.1116C92.4993 41.2849 92.1926 40.5649 91.8993 39.9516C91.686 39.4582 91.4793 39.1116 91.2793 38.9116C91.0793 38.6982 90.7793 38.5649 90.3793 38.5116C90.206 38.4849 90.086 38.4582 90.0193 38.4316C89.966 38.4049 89.9326 38.3049 89.9193 38.1316C89.906 37.9049 89.966 37.7849 90.0993 37.7716C90.246 37.7449 90.4193 37.7249 90.6193 37.7116C91.446 37.6716 92.0926 37.7916 92.5593 38.0716C93.026 38.3516 93.406 38.8249 93.6993 39.4916C93.886 39.9049 94.0926 40.4182 94.3193 41.0316C94.5593 41.6449 94.806 42.2649 95.0593 42.8916C95.3126 43.5182 95.5593 44.0849 95.7993 44.5916H95.8593L97.8393 39.3516C97.9726 38.9649 97.9793 38.7249 97.8593 38.6316C97.7393 38.5382 97.4793 38.4916 97.0793 38.4916C96.9593 38.4916 96.8593 38.4849 96.7793 38.4716C96.6993 38.4449 96.6526 38.3316 96.6393 38.1316C96.6393 38.0516 96.6593 37.9649 96.6993 37.8716C96.7526 37.7782 96.826 37.7316 96.9193 37.7316C97.306 37.7449 97.6393 37.7582 97.9193 37.7716C98.1993 37.7849 98.5126 37.7916 98.8593 37.7916C99.0993 37.7916 99.2926 37.7916 99.4393 37.7916C99.586 37.7782 99.7393 37.7716 99.8993 37.7716C100.059 37.7582 100.266 37.7449 100.519 37.7316C100.626 37.7316 100.699 37.7782 100.739 37.8716C100.793 37.9649 100.819 38.0516 100.819 38.1316C100.806 38.3316 100.753 38.4449 100.659 38.4716C100.579 38.4849 100.486 38.4916 100.379 38.4916C99.9393 38.4916 99.586 38.5716 99.3193 38.7316C99.066 38.8916 98.846 39.2049 98.6593 39.6716C98.6593 39.6716 98.586 39.8516 98.4393 40.2116C98.306 40.5582 98.126 41.0116 97.8993 41.5716C97.6726 42.1316 97.4326 42.7249 97.1793 43.3516C96.926 43.9782 96.6793 44.5716 96.4393 45.1316C96.2126 45.6916 96.026 46.1516 95.8793 46.5116C95.7326 46.8716 95.6526 47.0516 95.6393 47.0516H94.7993ZM103.647 47.0916C102.834 47.0916 102.18 46.8582 101.687 46.3916C101.207 45.9249 100.967 45.3649 100.967 44.7116C100.967 44.0316 101.14 43.4982 101.487 43.1116C101.847 42.7249 102.314 42.4382 102.887 42.2516C103.474 42.0649 104.107 41.9382 104.787 41.8716C105.48 41.8049 106.154 41.7516 106.807 41.7116V40.1316C106.807 39.5049 106.647 39.0182 106.327 38.6716C106.02 38.3116 105.494 38.1316 104.747 38.1316C104.374 38.1316 104.02 38.2516 103.687 38.4916C103.367 38.7316 103.207 39.0782 103.207 39.5316C103.207 39.7449 103.26 39.9249 103.367 40.0716C103.474 40.2182 103.58 40.3316 103.687 40.4116C103.794 40.4916 103.847 40.5449 103.847 40.5716C103.847 40.6249 103.767 40.7249 103.607 40.8716C103.46 41.0049 103.254 41.0716 102.987 41.0716C102.574 41.0716 102.254 40.9182 102.027 40.6116C101.8 40.3049 101.687 39.9649 101.687 39.5916C101.687 39.0849 101.84 38.6849 102.147 38.3916C102.467 38.0982 102.874 37.8849 103.367 37.7516C103.86 37.6182 104.36 37.5516 104.867 37.5516C105.467 37.5516 106.047 37.6249 106.607 37.7716C107.18 37.9182 107.647 38.1982 108.007 38.6116C108.38 39.0249 108.567 39.6449 108.567 40.4716V45.1316C108.58 45.2649 108.614 45.4249 108.667 45.6116C108.72 45.7982 108.82 45.9649 108.967 46.1116C109.127 46.2449 109.34 46.3116 109.607 46.3116C109.7 46.3116 109.774 46.3316 109.827 46.3716C109.88 46.3982 109.907 46.4849 109.907 46.6316C109.907 46.7516 109.84 46.8449 109.707 46.9116C109.574 46.9782 109.42 47.0249 109.247 47.0516C109.074 47.0782 108.927 47.0916 108.807 47.0916C108.314 47.0916 107.874 46.9516 107.487 46.6716C107.1 46.3782 106.874 45.9782 106.807 45.4716C106.514 46.0049 106.074 46.4116 105.487 46.6916C104.914 46.9582 104.3 47.0916 103.647 47.0916ZM104.287 46.0116C104.74 46.0116 105.154 45.8982 105.527 45.6716C105.914 45.4449 106.22 45.1382 106.447 44.7516C106.687 44.3516 106.807 43.9116 106.807 43.4316V42.2916C105.434 42.3849 104.454 42.6049 103.867 42.9516C103.28 43.2982 102.987 43.8649 102.987 44.6516C102.987 45.5582 103.42 46.0116 104.287 46.0116ZM114.49 47.1916C114.09 47.1916 113.71 47.0916 113.35 46.8916C112.99 46.6916 112.69 46.3849 112.45 45.9716C112.223 45.5582 112.11 45.0382 112.11 44.4116V38.5316L110.95 38.5716C110.857 38.5716 110.783 38.5382 110.73 38.4716C110.69 38.3916 110.67 38.3049 110.67 38.2116C110.67 37.9449 110.763 37.7916 110.95 37.7516C111.443 37.6582 111.817 37.5049 112.07 37.2916C112.323 37.0649 112.517 36.7982 112.65 36.4916C112.797 36.1849 112.93 35.8516 113.05 35.4916C113.09 35.3849 113.15 35.3182 113.23 35.2916C113.31 35.2516 113.397 35.2316 113.49 35.2316C113.57 35.2316 113.657 35.2516 113.75 35.2916C113.857 35.3316 113.91 35.4049 113.91 35.5116L113.77 37.7916L116.11 37.6516C116.23 37.6382 116.31 37.6716 116.35 37.7516C116.39 37.8316 116.41 37.9249 116.41 38.0316C116.41 38.1649 116.383 38.2982 116.33 38.4316C116.29 38.5649 116.237 38.6316 116.17 38.6316L113.93 38.5716V44.6516C113.93 45.0382 114.01 45.3916 114.17 45.7116C114.343 46.0316 114.65 46.1916 115.09 46.1916C115.237 46.1916 115.403 46.1782 115.59 46.1516C115.777 46.1249 115.977 46.0649 116.19 45.9716C116.243 45.9449 116.297 45.9249 116.35 45.9116C116.403 45.8849 116.457 45.8716 116.51 45.8716C116.617 45.8716 116.697 45.9182 116.75 46.0116C116.803 46.0916 116.85 46.1782 116.89 46.2716C116.93 46.3916 116.897 46.4849 116.79 46.5516C116.377 46.8182 115.997 46.9916 115.65 47.0716C115.303 47.1516 114.917 47.1916 114.49 47.1916ZM123.248 47.0916C122.221 47.0916 121.355 46.8716 120.648 46.4316C119.955 45.9916 119.435 45.4049 119.088 44.6716C118.741 43.9382 118.568 43.1382 118.568 42.2716C118.568 41.6849 118.668 41.1182 118.868 40.5716C119.081 40.0116 119.381 39.5049 119.768 39.0516C120.155 38.5849 120.621 38.2182 121.168 37.9516C121.715 37.6849 122.335 37.5516 123.028 37.5516C124.255 37.5516 125.175 37.8716 125.788 38.5116C126.415 39.1382 126.775 39.9382 126.868 40.9116C126.868 41.3782 126.735 41.6849 126.468 41.8316C126.215 41.9782 125.881 42.0516 125.468 42.0516H120.608C120.608 42.8249 120.715 43.5182 120.928 44.1316C121.141 44.7316 121.475 45.2116 121.928 45.5716C122.395 45.9182 123.008 46.0916 123.768 46.0916C124.328 46.0916 124.808 45.9716 125.208 45.7316C125.608 45.4916 125.995 45.0716 126.368 44.4716C126.475 44.3382 126.621 44.3316 126.808 44.4516C126.915 44.5049 126.981 44.5916 127.008 44.7116C127.035 44.8182 127.021 44.9116 126.968 44.9916C126.555 45.6449 126.035 46.1582 125.408 46.5316C124.781 46.9049 124.061 47.0916 123.248 47.0916ZM120.608 41.2916H123.868C124.188 41.2916 124.441 41.2316 124.628 41.1116C124.828 40.9782 124.935 40.7582 124.948 40.4516C124.948 39.8782 124.788 39.3716 124.468 38.9316C124.161 38.4782 123.681 38.2516 123.028 38.2516C122.361 38.2516 121.801 38.5182 121.348 39.0516C120.908 39.5849 120.661 40.3316 120.608 41.2916ZM139.42 47.2516C138.354 47.2516 137.46 47.0649 136.74 46.6916C136.02 46.3182 135.48 45.8382 135.12 45.2516C134.76 44.6649 134.58 44.0449 134.58 43.3916V36.5716C134.58 36.3182 134.554 36.0782 134.5 35.8516C134.46 35.6116 134.354 35.4182 134.18 35.2716C134.007 35.1116 133.707 35.0316 133.28 35.0316C133.147 35.0316 133.034 35.0182 132.94 34.9916C132.847 34.9649 132.794 34.8382 132.78 34.6116C132.78 34.5049 132.807 34.4049 132.86 34.3116C132.914 34.2182 133.007 34.1716 133.14 34.1716C133.567 34.1849 133.967 34.1982 134.34 34.2116C134.714 34.2249 135.1 34.2316 135.5 34.2316C136.314 34.2316 137.147 34.2116 138 34.1716C138.134 34.1716 138.227 34.2182 138.28 34.3116C138.334 34.4049 138.36 34.5049 138.36 34.6116C138.347 34.8116 138.307 34.9316 138.24 34.9716C138.174 35.0116 138.08 35.0316 137.96 35.0316C137.507 35.0316 137.18 35.1049 136.98 35.2516C136.794 35.3849 136.68 35.5716 136.64 35.8116C136.6 36.0382 136.574 36.2916 136.56 36.5716V42.8116C136.56 43.1582 136.594 43.5249 136.66 43.9116C136.74 44.2849 136.887 44.6382 137.1 44.9716C137.314 45.2916 137.627 45.5582 138.04 45.7716C138.467 45.9716 139.034 46.0716 139.74 46.0716C140.647 46.0716 141.34 45.9249 141.82 45.6316C142.314 45.3249 142.654 44.9449 142.84 44.4916C143.027 44.0382 143.12 43.5716 143.12 43.0916V37.8316C143.12 36.9516 143.087 36.3182 143.02 35.9316C142.954 35.5316 142.807 35.2849 142.58 35.1916C142.367 35.0849 142.034 35.0316 141.58 35.0316C141.447 35.0316 141.334 35.0182 141.24 34.9916C141.147 34.9649 141.094 34.8382 141.08 34.6116C141.08 34.5049 141.107 34.4049 141.16 34.3116C141.214 34.2182 141.307 34.1716 141.44 34.1716C141.867 34.1849 142.247 34.1982 142.58 34.2116C142.914 34.2249 143.28 34.2316 143.68 34.2316C144.08 34.2316 144.447 34.2249 144.78 34.2116C145.114 34.1982 145.494 34.1849 145.92 34.1716C146.054 34.1716 146.147 34.2182 146.2 34.3116C146.254 34.4049 146.28 34.5049 146.28 34.6116C146.267 34.8116 146.227 34.9316 146.16 34.9716C146.094 35.0116 146 35.0316 145.88 35.0316C145.52 35.0316 145.227 35.0516 145 35.0916C144.787 35.1316 144.62 35.2382 144.5 35.4116C144.394 35.5716 144.32 35.8382 144.28 36.2116C144.254 36.5716 144.24 37.0716 144.24 37.7116V43.2916C144.24 43.9982 144.087 44.6049 143.78 45.1116C143.487 45.6182 143.094 46.0316 142.6 46.3516C142.12 46.6582 141.6 46.8849 141.04 47.0316C140.48 47.1782 139.94 47.2516 139.42 47.2516Z" fill="#D9AD49"/>
<defs>
<linearGradient id="paint0_linear_4119_256" x1="96" y1="-17.1484" x2="96.008" y2="144.852" gradientUnits="userSpaceOnUse">
<stop stop-color="#002750"/>
<stop offset="0.61059" stop-color="#00264D"/>
<stop offset="0.898744"/>
</linearGradient>
<linearGradient id="paint1_linear_4119_256" x1="96.002" y1="147.352" x2="96.002" y2="185.352" gradientUnits="userSpaceOnUse">
<stop stop-color="#073A72"/>
<stop offset="1"/>
</linearGradient>
</defs>
</svg>
